<svg id="Capa_1" enable-background="new 0 0 512 512" height="512" viewBox="0 0 512 512" width="512" xmlns="http://www.w3.org/2000/svg"><g><g><path clip-rule="evenodd" d="m262.804 475.433c6.156 5.04 9.22 7.781 12.313 7.898 3.063-.118 6.156-2.859 12.313-7.898l162.33-166.222c48.013-51.37 48.013-135.453 0-186.852-43.624-46.684-115.26-36.309-160.711 8.399l-8.542 8.4c-4.949 4.863-5.891 4.863-10.958-.118l-8.395-8.282c-45.362-44.738-117.087-55.083-160.711-8.399-48.013 51.399-48.013 135.482 0 186.852l19.47 19.953z" fill="#fd8087" fill-rule="evenodd"/></g><g><path clip-rule="evenodd" d="m309.05 114.402c23.358 33.893 36.908 74.151 36.908 117.328 0 4.715-.177 9.372-.501 13.97-2.592 38.343-15.906 74.004-37.173 104.449-9.367 13.41-20.266 25.817-32.519 37.017-13.078 11.966-27.659 22.517-43.477 31.388-5.42 3.036-10.987 5.894-16.701 8.547l47.218 48.334c6.156 5.04 9.22 7.781 12.313 7.898 3.063-.118 6.156-2.859 12.313-7.898l49.662-50.869 112.667-115.355c37.939-40.583 45.892-101.619 23.889-150.778-5.862-13.056-13.815-25.287-23.889-36.074-6.628-7.073-13.903-12.85-21.621-17.388-25.155-14.765-55.112-16.445-83.389-7.781-12.401 3.802-24.507 9.638-35.7 17.212z" fill="#fe636e" fill-rule="evenodd"/></g><g><path d="m322.983 291.213c-.046 0-.092-.001-.137-.001-2.771-.049-5.303-1.58-6.637-4.01l-39.938-72.817-29.736 51.983c-1.348 2.356-3.831 3.832-6.544 3.889-2.733.05-5.257-1.314-6.701-3.611l-18.471-29.366-13.939 23.164c-1.397 2.323-3.909 3.743-6.619 3.743h-48.278c-4.267 0-7.726-3.461-7.726-7.73s3.459-7.73 7.726-7.73h43.911l18.16-30.179c1.384-2.299 3.86-3.717 6.543-3.743.026-.001.051-.001.076-.001 2.654 0 5.124 1.363 6.539 3.613l18.302 29.097 30.193-52.781c1.377-2.407 3.937-3.89 6.705-3.89.024 0 .046 0 .07.001 2.795.025 5.359 1.559 6.704 4.011l40.071 73.061 20.216-33.953c1.393-2.34 3.915-3.774 6.638-3.774h64.39c4.267 0 7.726 3.461 7.726 7.73s-3.459 7.73-7.726 7.73h-59.999l-24.882 41.79c-1.395 2.342-3.918 3.774-6.637 3.774z" fill="#f8f2f0"/></g><g><path clip-rule="evenodd" d="m428.139 171.843c46.187 0 83.861-37.695 83.861-83.936 0-46.212-37.674-83.907-83.861-83.907-46.216 0-83.89 37.695-83.89 83.907 0 46.241 37.674 83.936 83.89 83.936z" fill="#f8f2f0" fill-rule="evenodd"/></g><g><path clip-rule="evenodd" d="m398.065 9.541c29.485 13.027 50.045 42.499 50.045 76.804 0 .53 0 1.061-.029 1.562-.177 9.755-2.003 19.098-5.243 27.733-8.365 22.517-26.157 40.465-48.543 49.071 10.339 4.598 21.797 7.132 33.845 7.132 16.76 0 32.401-4.922 45.509-13.41 23.093-14.972 38.351-40.966 38.351-70.526 0-46.33-37.556-83.907-83.861-83.907-10.604 0-20.736 1.945-30.074 5.541z" fill="#d6dcea" fill-rule="evenodd"/></g><path d="m458.655 80.176h-22.79v-22.802c0-4.269-3.459-7.73-7.726-7.73s-7.726 3.461-7.726 7.73v22.803h-22.79c-4.267 0-7.726 3.461-7.726 7.73s3.459 7.73 7.726 7.73h22.79v22.803c0 4.269 3.459 7.73 7.726 7.73s7.726-3.461 7.726-7.73v-22.804h22.79c4.267 0 7.726-3.461 7.726-7.73s-3.458-7.73-7.726-7.73z" fill="#fd8087"/><g><path clip-rule="evenodd" d="m71.548 347.849-17.202 55.82 17.202 59.15 79.236 21.573 64.272 17.477c37.497 11.671 54.051 5.01 88.544-6.071l126.395-40.553c36.289-11.641 30.87-61.567-22.239-44.503l-70.664 13.822-11.547 2.269c-17.143 3.33-19.5 4.715-36.79 2.034l-56.467-10.315-10.251-1.886c-23.152-7.397-14.139-38.402 6.068-35.337 13.667 1.739 31.989 4.214 47.659 5.835.324.029.648.059.943.088 30.251 3.065 42.387-19.54 31.577-37.105-4.094-6.69-11.547-12.673-22.593-16.18l-42.564-7.81c-27.6-5.069-47.218 1.238-90.046 8.282l-24.124 3.979z" fill="#fed1a3" fill-rule="evenodd"/></g><g><path clip-rule="evenodd" d="m0 337.858v136.013c0 1.709 1.797 3.095 3.977 3.095h63.566c2.209 0 4.006-1.385 4.006-3.095v-11.052-114.97-9.991c0-1.709-1.797-3.095-4.006-3.095h-63.566c-2.18.001-3.977 1.386-3.977 3.095z" fill="#99e6fc" fill-rule="evenodd"/></g><g><path clip-rule="evenodd" d="m0 452.975v20.896c0 1.709 1.797 3.095 3.977 3.095h63.566c2.209 0 4.006-1.385 4.006-3.095v-11.052-9.844c0 1.68-1.797 3.095-4.006 3.095h-63.566c-2.18 0-3.977-1.415-3.977-3.095z" fill="#62dbfb" fill-rule="evenodd"/></g><g><path clip-rule="evenodd" d="m71.548 452.975v9.844l79.236 21.573 64.272 17.477c37.497 11.671 54.051 5.01 88.544-6.071l126.395-40.553c20.472-6.543 27.659-25.287 20.531-37.341-3.505 6.955-10.368 13.203-20.531 16.445l-126.395 40.553c-34.493 11.052-51.047 17.742-88.544 6.071l-64.272-17.477-79.236-21.603z" fill="#ffbc85" fill-rule="evenodd"/></g><g><path clip-rule="evenodd" d="m228.105 360.434c-16.024-2.417-25.008 16.534-16.525 28.175 3.387-5.04 9.22-8.37 16.525-7.28 13.667 1.739 31.989 4.214 47.659 5.835l.943.088c28.837 2.918 41.209-17.447 32.961-34.571-2.268 4.362-6.068 8.105-11.311 10.61-5.597 2.682-12.872 3.949-21.65 3.065l-.943-.088c-15.67-1.62-33.991-4.096-47.659-5.834z" fill="#ffbc85" fill-rule="evenodd"/></g></g></svg>