<svg height="512" viewBox="0 0 64 64" width="512" xmlns="http://www.w3.org/2000/svg"><g id="_27-listen" data-name="27-listen"><path d="m62 58-9-5-.23-.05a8.847 8.847 0 0 1 -6.58 6.67l-12.12 2.89a1.737 1.737 0 0 1 -.39.05 1.686 1.686 0 0 1 -1.68-1.69 1.686 1.686 0 0 1 -1.68 1.69 1.737 1.737 0 0 1 -.39-.05l-12.12-2.89a8.847 8.847 0 0 1 -6.58-6.67l-.23.05-9 5-1 5h62z" fill="#5064f7"/><path d="m25 50.15v4.85l-.14.19-1.79-1.28-.62-.44a3.6 3.6 0 0 1 -.45-5.47l.04-.04a15.017 15.017 0 0 0 2.96 2.19z" fill="#28113f"/><path d="m41.55 53.47-.62.44-1.79 1.28-.14-.19v-4.85a15.017 15.017 0 0 0 2.96-2.19l.04.04a3.6 3.6 0 0 1 -.45 5.47z" fill="#28113f"/><path d="m22 48a3.6 3.6 0 0 0 .45 5.47l.62.44-.07.09-3.46-1.67a3.006 3.006 0 0 1 -1.44-4.48l1.9-1.85.19-.14a15.361 15.361 0 0 0 1.21 1.46c.21.22.42.44.64.64z" fill="#691f38"/><path d="m44.46 52.33-3.46 1.67-.07-.09.62-.44a3.6 3.6 0 0 0 .45-5.47l-.04-.04a14.794 14.794 0 0 0 1.85-2.1l.19.14 1.9 1.85a3.006 3.006 0 0 1 -1.44 4.48z" fill="#691f38"/><path d="m23.07 53.91 1.79 1.28 1.14.81 5.28 3.5a1.681 1.681 0 0 1 -.96 3.06 1.737 1.737 0 0 1 -.39-.05l-12.12-2.89a8.847 8.847 0 0 1 -6.58-6.67 7.886 7.886 0 0 1 -.23-1.95c0-2 2-3.75 4-5a25.249 25.249 0 0 1 4-2h.01a16.241 16.241 0 0 0 1.18 1.86l-.19.14-1.9 1.85a3.006 3.006 0 0 0 1.44 4.48l3.46 1.67z" fill="#f04b59"/><path d="m41 54 3.46-1.67a3.006 3.006 0 0 0 1.44-4.48l-1.9-1.85-.19-.14a16.241 16.241 0 0 0 1.18-1.86h.01a25.249 25.249 0 0 1 4 2c2 1.25 4 3 4 5a7.886 7.886 0 0 1 -.23 1.95 8.847 8.847 0 0 1 -6.58 6.67l-12.12 2.89a1.737 1.737 0 0 1 -.39.05 1.681 1.681 0 0 1 -.96-3.06l5.28-3.5 1.14-.81 1.79-1.28z" fill="#f04b59"/><path d="m47 28-3.75-10s-6.56 10-13.13 10c0 0 3.76-5 3.76-7 0 0-6.57 9-16.88 9v-1a3 3 0 0 0 -3-3 2.653 2.653 0 0 0 -.94.16l-.06-.16v-3c0-9.94 7.66-18 17.1-18h3.8c9.44 0 17.1 8.06 17.1 18v3l-.06.16a2.653 2.653 0 0 0 -.94-.16 3 3 0 0 0 -3 3z" fill="#583f9a"/><path d="m11 41a2.653 2.653 0 0 0 .16.94l-.16.06-1.11-.83a7.241 7.241 0 0 1 -2.89-5.79v-.91a7.26 7.26 0 0 1 4-6.47l.16.06a2.653 2.653 0 0 0 -.16.94z" fill="#7c48db"/><path d="m56 30.81a7.231 7.231 0 0 1 1 3.66v.91a7.241 7.241 0 0 1 -2.89 5.79l-1.11.83-.16-.06a2.653 2.653 0 0 0 .16-.94v-12a2.653 2.653 0 0 0 -.16-.94l.16-.06a7.208 7.208 0 0 1 3 2.81z" fill="#7c48db"/><path d="m56 23v7.81a7.208 7.208 0 0 0 -3-2.81l-.16.06a2.937 2.937 0 0 0 -1.9-1.9l.06-.16v-3c0-9.94-7.66-18-17.1-18h-3.8c-9.44 0-17.1 8.06-17.1 18v3l.06.16a2.937 2.937 0 0 0 -1.9 1.9l-.16-.06a7.208 7.208 0 0 0 -3 2.81v-7.81a22 22 0 0 1 22-22h4a22 22 0 0 1 22 22z" fill="#f04b59"/><path d="m53 29v12a2.653 2.653 0 0 1 -.16.94 2.995 2.995 0 0 1 -5.84-.94v-12a3 3 0 0 1 3-3 2.653 2.653 0 0 1 .94.16 2.937 2.937 0 0 1 1.9 1.9 2.653 2.653 0 0 1 .16.94z" fill="#5064f7"/><path d="m17 30v11a2.995 2.995 0 0 1 -5.84.94 2.653 2.653 0 0 1 -.16-.94v-12a2.653 2.653 0 0 1 .16-.94 2.937 2.937 0 0 1 1.9-1.9 2.653 2.653 0 0 1 .94-.16 3 3 0 0 1 3 3z" fill="#5064f7"/><path d="m32.72 59.5a1.675 1.675 0 0 0 -.72 1.37 1.675 1.675 0 0 0 -.72-1.37l-5.28-3.5-1.14-.81.14-.19v-4.85a14.168 14.168 0 0 0 14 0v4.85l.14.19-1.14.81z" fill="#cfb8de"/><path d="m30.12 28c6.57 0 13.13-10 13.13-10l3.75 10v8a16.682 16.682 0 0 1 -2.01 8 16.241 16.241 0 0 1 -1.18 1.86 14.794 14.794 0 0 1 -1.85 2.1 15.017 15.017 0 0 1 -2.96 2.19 14.168 14.168 0 0 1 -14 0 15.017 15.017 0 0 1 -2.96-2.19c-.22-.2-.43-.42-.64-.64a15.361 15.361 0 0 1 -1.21-1.46 16.241 16.241 0 0 1 -1.18-1.86 16.682 16.682 0 0 1 -2.01-8v-6c10.31 0 16.88-9 16.88-9 0 2-3.76 7-3.76 7z" fill="#f4e6ff"/><path d="m50 37v-11a3 3 0 0 0 -3 3v12a2.995 2.995 0 0 0 5.84.94 2.653 2.653 0 0 0 .16-.94v-1a3 3 0 0 1 -3-3z" fill="#453daa"/><path d="m54 35v-6.383a7.313 7.313 0 0 0 -1-.617l-.16.06a2.653 2.653 0 0 1 .16.94v12a2.653 2.653 0 0 1 -.16.94l.16.06 1.11-.83a7.245 7.245 0 0 0 2.413-3.218 2.993 2.993 0 0 1 -2.523-2.952z" fill="#362b7a"/><path d="m14 37v-11a3 3 0 0 1 3 3v12a2.995 2.995 0 0 1 -5.84.94 2.653 2.653 0 0 1 -.16-.94v-1a3 3 0 0 0 3-3z" fill="#453daa"/><path d="m10 35v-6.383a7.313 7.313 0 0 1 1-.617l.16.06a2.653 2.653 0 0 0 -.16.94v12a2.653 2.653 0 0 0 .16.94l-.16.06-1.11-.83a7.245 7.245 0 0 1 -2.413-3.218 2.993 2.993 0 0 0 2.523-2.952z" fill="#362b7a"/><g fill="#bc2f63"><path d="m55 24a2 2 0 0 1 -2-2 19 19 0 0 0 -19-19h-4a19 19 0 0 0 -19 19 2 2 0 0 1 -2 2h-1v6.81a7.208 7.208 0 0 1 3-2.81l.16.06a2.937 2.937 0 0 1 1.9-1.9l-.06-.16v-3c0-9.94 7.66-18 17.1-18h3.8c9.44 0 17.1 8.06 17.1 18v3l-.06.16a2.937 2.937 0 0 1 1.9 1.9l.16-.06a7.208 7.208 0 0 1 3 2.81v-6.81z"/><path d="m31.28 59.5-2.28-1.511v.236a2 2 0 0 1 -2.632 1.9l-10.468-3.493a2.774 2.774 0 0 1 -1.9-2.632 3.986 3.986 0 0 1 3.657-3.965 2.976 2.976 0 0 1 .443-2.185l1.9-1.85.19-.14a16.241 16.241 0 0 1 -1.18-1.86h-.01a25.249 25.249 0 0 0 -4 2c-2 1.25-4 3-4 5a7.886 7.886 0 0 0 .23 1.95 8.847 8.847 0 0 0 6.58 6.67l12.12 2.89a1.737 1.737 0 0 0 .39.05 1.681 1.681 0 0 0 .96-3.06z"/><path d="m49 46a25.249 25.249 0 0 0 -4-2h-.01a16.241 16.241 0 0 1 -1.18 1.86l.19.14 1.9 1.85a2.976 2.976 0 0 1 .443 2.185 3.986 3.986 0 0 1 3.657 3.965 2.774 2.774 0 0 1 -1.9 2.632l-10.471 3.49a2 2 0 0 1 -2.629-1.897v-.236l-2.28 1.511a1.681 1.681 0 0 0 .96 3.06 1.737 1.737 0 0 0 .39-.05l12.12-2.89a8.847 8.847 0 0 0 6.58-6.67 7.886 7.886 0 0 0 .23-1.95c0-2-2-3.75-4-5z"/></g><path d="m44 36a16.682 16.682 0 0 1 -2.01 8 16.241 16.241 0 0 1 -1.18 1.86 14.794 14.794 0 0 1 -1.85 2.1 15.017 15.017 0 0 1 -2.96 2.19 14.218 14.218 0 0 1 -5.5 1.763 14.033 14.033 0 0 0 1.5.087 14.176 14.176 0 0 0 7-1.85 15.017 15.017 0 0 0 2.96-2.19 14.794 14.794 0 0 0 1.85-2.1 16.241 16.241 0 0 0 1.18-1.86 16.682 16.682 0 0 0 2.01-8v-5.333l-3-4z" fill="#f8f0ff"/><path d="m43.25 18s-6.56 10-13.13 10c0 0 3.76-5 3.76-7 0 0-6.57 9-16.88 9v1.966c8.287-.355 12-4.966 12-4.966l-2 4c5 0 15-7 15-7l2 2.667 3 4v-2.667z" fill="#cfb8de"/><path d="m25.04 47.96c-.22-.2-.43-.42-.64-.64a15.361 15.361 0 0 1 -1.21-1.46 16.241 16.241 0 0 1 -1.18-1.86 16.682 16.682 0 0 1 -2.01-8v-4.372a21.647 21.647 0 0 1 -3 .338v4.034a16.682 16.682 0 0 0 2.01 8 16.241 16.241 0 0 0 1.18 1.86 15.361 15.361 0 0 0 1.21 1.46c.21.22.42.44.64.64a15.017 15.017 0 0 0 2.96 2.19 14.176 14.176 0 0 0 7 1.85 14.033 14.033 0 0 0 1.5-.087 14.218 14.218 0 0 1 -5.5-1.763 15.017 15.017 0 0 1 -2.96-2.19z" fill="#e4cbf5"/><path d="m27.007 51.082a14.571 14.571 0 0 1 -2.007-.932v4.85l-.14.19 1.14.81 5.28 3.5a1.675 1.675 0 0 1 .72 1.37 1.675 1.675 0 0 1 .72-1.37l3.794-2.515c-5.254-.151-9.436-2.723-9.507-5.903z" fill="#b7a3c4"/><path d="m50 22a2 2 0 0 1 -2-2 13 13 0 0 0 -13-13h-5a13 13 0 0 0 -13 13v1a2 2 0 0 1 -2 2h-2v3l.06.16a2.653 2.653 0 0 1 .94-.16 3 3 0 0 1 3 3v1c10.31 0 16.88-9 16.88-9 0 2-3.76 7-3.76 7 6.57 0 13.13-10 13.13-10l3.75 10v1a3 3 0 0 1 3-3 2.653 2.653 0 0 1 .94.16l.06-.16v-3c0-.338-.031-.667-.048-1z" fill="#362b7a"/><path d="m34 38.429c0 2.761-.9 3.571-2 3.571s-2-.81-2-3.571.9-6.429 2-6.429 2 3.667 2 6.429z" fill="#e4cbf5"/><path d="m28 44.5h8s0 3-4 3-4-3-4-3z" fill="#f04b59"/><ellipse cx="40" cy="32" fill="#28113f" rx="2" ry="4"/><ellipse cx="24" cy="32" fill="#28113f" rx="2" ry="4"/><path d="m53.336 58.5 2.583-3.874-2.919-1.626-.23-.05a8.847 8.847 0 0 1 -6.58 6.67l-12.12 2.89a1.737 1.737 0 0 1 -.39.05 1.686 1.686 0 0 1 -1.68-1.69 1.686 1.686 0 0 1 -1.68 1.69 1.737 1.737 0 0 1 -.39-.05l-12.12-2.89a8.847 8.847 0 0 1 -6.58-6.67l-.23.05-2.919 1.622 2.583 3.878a2 2 0 0 1 .336 1.106v3.394h42v-3.394a2 2 0 0 1 .336-1.106z" fill="#453daa"/><path d="m62.634.227a1 1 0 0 0 -.834-.207l-10 2a1 1 0 0 0 -.8.98v7.184a2.966 2.966 0 0 0 -1-.184 3 3 0 1 0 3 3v-6.18l8-1.6v1.964a2.966 2.966 0 0 0 -1-.184 3 3 0 1 0 3 3v-9a1 1 0 0 0 -.366-.773zm-12.634 13.773a1 1 0 1 1 1-1 1 1 0 0 1 -1 1zm3-9.22v-.961l8-1.6v.96zm7 6.22a1 1 0 1 1 1-1 1 1 0 0 1 -1 1z" fill="#ff983b"/><path d="m5 11a1 1 0 0 0 -1 1v7.184a2.966 2.966 0 0 0 -1-.184 3 3 0 1 0 3 3v-8.957c2.992.263 5 1.676 5 2.957a1 1 0 0 0 2 0c0-2.8-3.514-5-8-5zm-2 12a1 1 0 1 1 1-1 1 1 0 0 1 -1 1z" fill="#ff983b"/><circle cx="3" cy="22" fill="#ef4852" r="2"/><circle cx="60" cy="10" fill="#ef4852" r="2"/><circle cx="50" cy="13" fill="#ef4852" r="2"/></g></svg>