<svg id="Layer_3" enable-background="new 0 0 64 64" height="512" viewBox="0 0 64 64" width="512" xmlns="http://www.w3.org/2000/svg"><g><path d="m37 32h9l4 4h-13" fill="#474747"/><path d="m37 32h23c1.105 0 2-.895 2-2v-26c0-1.105-.895-2-2-2h-36c-1.105 0-2 .895-2 2v19" fill="#686868"/><path d="m26 6h32v22h-32z" fill="#e2e7f6"/><g><path d="m54 17h2v4h-2z" fill="#f29b99"/></g><g><path d="m43 8h4v2h-4z" fill="#f29b99"/></g><path d="m58 16.419c-.926.375-1.939.581-3 .581-4.418 0-8-3.582-8-8 0-1.061.207-2.074.582-3h10.418z" fill="#e1656e"/><g><path d="m55 18c-4.962 0-9-4.038-9-9 0-1.167.221-2.304.655-3.376l1.854.751c-.338.833-.509 1.717-.509 2.625 0 3.86 3.14 7 7 7 .909 0 1.792-.171 2.625-.509l.751 1.854c-1.073.435-2.209.655-3.376.655z" fill="#ba4753"/></g><g><path d="m39 35h16v2h-16z" fill="#686868"/></g><g><path d="m52 20h6v2h-6z" fill="#ba4753"/></g><g><path d="m42 6h2v6h-2z" fill="#ba4753"/></g><g><path d="m46.068 13.751h6.364v2h-6.364z" fill="#f29b99" transform="matrix(.707 -.707 .707 .707 3.995 39.145)"/></g><g><path d="m46 14.172h2v5.657h-2z" fill="#ba4753" transform="matrix(.707 -.707 .707 .707 1.745 38.213)"/></g><g><path d="m50 8h2v2h-2z" fill="#ba4753"/></g><g><path d="m55 8h3v2h-3z" fill="#f29b99"/></g><g><path d="m54 13h2v2h-2z" fill="#f29b99"/></g><g><path d="m35 11h2v3h-2z" fill="#7aadf9"/></g><g><path d="m35 22h2v3h-2z" fill="#7aadf9"/></g><g><path d="m29 17h3v2h-3z" fill="#7aadf9"/></g><g><path d="m40 17h3v2h-3z" fill="#7aadf9"/></g><g><path d="m30.611 20.889h3v2h-3z" fill="#2862be" transform="matrix(.707 -.707 .707 .707 -6.073 29.117)"/></g><g><path d="m38.389 13.111h3v2h-3z" fill="#2862be" transform="matrix(.707 -.707 .707 .707 1.705 32.339)"/></g><g><path d="m38.889 20.389h2v3h-2z" fill="#2862be" transform="matrix(.707 -.707 .707 .707 -3.792 34.627)"/></g><g><path d="m31.111 12.611h2v3h-2z" fill="#2862be" transform="matrix(.707 -.707 .707 .707 -.57 26.846)"/></g><circle cx="36" cy="18" fill="#2862be" r="4"/><g><path d="m36 23c-2.757 0-5-2.243-5-5s2.243-5 5-5 5 2.243 5 5-2.243 5-5 5zm0-8c-1.654 0-3 1.346-3 3s1.346 3 3 3 3-1.346 3-3-1.346-3-3-3z" fill="#3279ea"/></g><g><path d="m35 17h2v2h-2z" fill="#7aadf9"/></g><g><path d="m58 29h-24v-2h23v-20h-30v18h-2v-19c0-.552.448-1 1-1h32c.552 0 1 .448 1 1v22c0 .552-.448 1-1 1z" fill="#c8cded"/></g><circle cx="22" cy="42" fill="#2b74ca" r="20"/><path d="m38 34c0-1.585-.171-3.129-.49-4.618-3.667-4.503-9.25-7.382-15.51-7.382-11.046 0-20 8.954-20 20 0 4.224 1.317 8.136 3.552 11.364 3.108 1.681 6.666 2.636 10.448 2.636 12.15 0 22-9.85 22-22z" fill="#3d98f7"/><g fill="#78b75b"><path d="m22 22c-6.292 0-11.898 2.912-15.563 7.456-.502.622-.458 1.524.108 2.089.291.291.687.455 1.099.455h1.712c.412 0 .808-.164 1.099-.455l2.089-2.089c.292-.292.688-.456 1.1-.456h2.712c.412 0 .808-.164 1.099-.455l1.089-1.089c.292-.292.688-.456 1.1-.456h1.712c.412 0 .808-.164 1.099-.455l1.089-1.089c.292-.292.456-.688.456-1.1v-.789c0-.843-.67-1.539-1.513-1.56-.162-.005-.324-.007-.487-.007z"/><path d="m38.695 30.987c-1.444-2.182-3.305-4.063-5.47-5.532-1.37-.929-3.225.039-3.225 1.694 0 .545.216 1.067.601 1.452l.797.797c.386.386.602.908.602 1.453v1.299c0 .545.216 1.067.601 1.452l.797.797c.386.385.908.601 1.453.601h1.299c.545 0 1.067-.216 1.452-.601l.825-.825c.689-.69.806-1.774.268-2.587z"/><path d="m38.543 50.543c-.348-.348-.819-.543-1.31-.543h-1.465c-.491 0-.962.195-1.31.543l-.915.915c-.348.347-.819.542-1.31.542h-1.38c-1.024 0-1.853.829-1.853 1.852v.38c0 .491-.195.962-.543 1.31l-.915.915c-.347.348-.818.543-1.309.543h-1.465c-.491 0-.962.195-1.31.543l-.915.915c-.348.347-.543.818-.543 1.309v.282c0 1.084.93 1.959 2.008 1.851 6.197-.618 11.559-4.065 14.781-9.03.477-.735.374-1.707-.246-2.327z"/><path d="m13.487 50.513-4.322 4.322c-.729.729-.683 1.939.115 2.591.009.007.018.015.028.022.701.571 1.721.523 2.36-.116l.82-.82c.328-.328.773-.512 1.237-.512h1.55c.464 0 .909-.184 1.237-.513l.975-.975c.329-.328.513-.773.513-1.237v-.55c0-.464-.184-.909-.513-1.237l-.975-.975c-.328-.329-.773-.513-1.237-.513h-.55c-.464 0-.909.184-1.238.513z"/></g><path d="m12 42.238-3.232-3.878c-.27-.324-.714-.442-1.108-.3-.396.143-.66.519-.66.94v7h2v-4.238l3.232 3.878c.194.233.477.36.768.36.114 0 .229-.02.34-.06.396-.143.66-.519.66-.94v-7h-2z" fill="#fff"/><path d="m28 42.586-1.293-1.293c-.391-.391-1.023-.391-1.414 0l-1.293 1.293v-4.586h-2v7c0 .404.244.769.617.924s.803.069 1.09-.217l2.293-2.293 2.293 2.293c.191.191.447.293.707.293.129 0 .259-.025.383-.076.373-.155.617-.52.617-.924v-7h-2z" fill="#fff"/><path d="m15 39v6c0 .552.448 1 1 1h5v-2h-4v-1h4v-2h-4v-1h4v-2h-5c-.552 0-1 .448-1 1z" fill="#fff"/><path d="m31 39v3c0 .552.448 1 1 1h3v1h-4v2h5c.552 0 1-.448 1-1v-3c0-.552-.448-1-1-1h-3v-1h4v-2h-5c-.552 0-1 .448-1 1z" fill="#fff"/></g></svg>