<svg id="Layer_1" height="512" viewBox="0 0 256 256" width="512" xmlns="http://www.w3.org/2000/svg"><g><g><path d="m249 212.647v-182.294c0-5.523-4.477-10-10-10h-222c-5.523 0-10 4.477-10 10v182.294z" fill="#f1f2f2"/></g><g><path d="m133.099 28.353h-.886c-1.104 0-2-.896-2-2s.896-2 2-2h.886c1.104 0 2 .896 2 2s-.896 2-2 2zm-8.886 0h-96c-1.104 0-2-.896-2-2s.896-2 2-2h96c1.104 0 2 .896 2 2s-.895 2-2 2z" fill="#fff"/></g><g><path d="m239 20.353h-30v172.294h-202v20h242v-182.294c0-5.523-4.477-10-10-10z" fill="#e6e7e8"/></g><g><path d="m239 20.353h-10v182.294h-222v10h242v-182.294c0-5.523-4.477-10-10-10z" fill="#d1d3d4"/></g><g><path d="m93 212.647-10 23h156c5.523 0 10-4.477 10-10v-13z" fill="#e8566f"/></g><g><path d="m244 212.647v8c0 5.523-4.477 10-10 10h-148.826l-2.174 5h156c5.523 0 10-4.477 10-10v-13z" fill="#e63950"/></g><g><path d="m7 212.647v13c0 5.523 4.477 10 10 10h66l10-23z" fill="#d10028"/></g><g><path d="m85.826 212.647-7.826 18h-66c-1.466 0-2.855-.323-4.11-.89 1.569 3.471 5.053 5.89 9.11 5.89h66l10-23z" fill="#b7022d"/></g><g><g><g><g><path d="m235.824 212.647h-128.324v-32.536c0-22.091 17.909-40 40-40h48.324c22.091 0 40 17.909 40 40z" fill="#58595b"/></g><g><path d="m221.494 149.441c5.821 6.947 9.33 15.897 9.33 25.67v28.536c0 2.209-1.791 4-4 4h-119.324v5h128.324v-32.536c0-12.318-5.572-23.332-14.33-30.67z" fill="#414042"/></g><g><path d="m205.177 189.909 5.521-5.047c1.566-1.432 2.458-3.455 2.458-5.577v-8.949c0-20.866-16.915-37.781-37.781-37.781h-7.424c-20.866 0-37.781 16.915-37.781 37.781v8.949c0 2.122.892 4.146 2.458 5.577l5.521 5.047-6.887 9.843c-.711 1.016-1.092 2.226-1.092 3.465v9.429h82.987v-9.429c0-1.24-.381-2.45-1.092-3.465z" fill="#939598"/></g><g><g><path d="m213.155 179.285v-8.949c0-11.706-5.325-22.168-13.684-29.098 5.423 6.54 8.684 14.938 8.684 24.098v8.949c0 2.122-.892 4.146-2.458 5.577l-5.521 5.047 6.887 9.843c.711 1.016 1.092 2.226 1.092 3.465v7.429c0 1.105-.895 2-2 2h-75.987v5h82.987v-9.429c0-1.24-.381-2.45-1.092-3.465l-6.887-9.843 5.521-5.047c1.566-1.431 2.458-3.455 2.458-5.577z" fill="#808285"/></g></g><g><path d="m193.701 212.647h-44.078v-62.536c0-5.523 4.477-10 10-10h24.078c5.523 0 10 4.477 10 10z" fill="#fff"/></g><g><g><path d="m171.662 158.728-4.795 2.69 1.835 7.238h5.919l1.836-7.238z" fill="#d10028"/></g><g><path d="m174.262 160.186-1.258 4.962c-.225.887-1.023 1.508-1.939 1.508h-2.87l.507 2h5.919l1.835-7.239z" fill="#b7022d"/></g><g><path d="m174.621 168.656h-5.919l-4.533 43.991h14.986z" fill="#d10028"/></g><g><path d="m174.621 168.656h-1.794l4.1 39.786c.122 1.179-.804 2.205-1.989 2.205h-10.564l-.206 2h14.987z" fill="#b7022d"/></g><g><path d="m183.878 140.111h-24.432c-5.425 0-9.823 4.398-9.823 9.823v18.577c0 1.155 1.243 1.883 2.251 1.318l19.788-11.102 19.788 11.102c1.007.565 2.251-.163 2.251-1.318v-18.577c0-5.425-4.398-9.823-9.823-9.823z" fill="#e6e7e8"/></g></g></g><g><path d="m171.662 128.721c-4.3 0-8.415-.786-12.216-2.214v17.825c0 .692.237 1.362.672 1.9l9.193 11.373c1.21 1.497 3.491 1.497 4.701 0l9.194-11.373c.435-.538.672-1.208.672-1.9v-17.825c-3.801 1.428-7.916 2.214-12.216 2.214z" fill="#fcc4ae"/></g><g><path d="m171.662 128.721c-4.3 0-8.415-.786-12.216-2.214v3.877c3.818 1.366 7.929 2.115 12.216 2.115 4.287 0 8.398-.749 12.216-2.115v-3.877c-3.801 1.428-7.916 2.214-12.216 2.214z" fill="#f2ad97"/></g><g><g><path d="m182.469 121.348h-21.615c-15.928 0-28.84-12.912-28.84-28.84v-23.809c0-20.748 16.819-37.567 37.567-37.567h4.161c20.748 0 37.567 16.819 37.567 37.567v23.809c.001 15.928-12.912 28.84-28.84 28.84z" fill="#995222"/></g><g><g><g><path d="m206.421 80.668v13.293c0 2.512-.273 4.96-.779 7.321.258.019.516.039.779.039 5.703 0 10.327-4.624 10.327-10.327s-4.623-10.326-10.327-10.326z" fill="#ffd2c0"/></g><g><path d="m212.926 82.979c1.443 1.776 2.31 4.039 2.31 6.505 0 5.359-4.082 9.763-9.306 10.275-.086.51-.18 1.016-.287 1.518.258.019.515.045.778.045 5.703 0 10.327-4.623 10.327-10.327 0-3.236-1.491-6.123-3.822-8.016z" fill="#fcc4ae"/></g><g><path d="m206.421 85.706v8.256c0 .779-.035 1.549-.085 2.315.029 0 .056.009.085.009 2.921 0 5.289-2.368 5.289-5.289s-2.368-5.291-5.289-5.291z" fill="#f2ad97"/></g></g><g><g><path d="m136.903 93.962v-13.294c-5.703 0-10.327 4.624-10.327 10.327s4.624 10.327 10.327 10.327c.263 0 .521-.02.779-.039-.506-2.361-.779-4.809-.779-7.321z" fill="#ffd2c0"/></g><g><path d="m136.903 93.962v-8.256c-2.921 0-5.289 2.368-5.289 5.289s2.368 5.289 5.289 5.289c.029 0 .056-.008.085-.009-.05-.765-.085-1.535-.085-2.313z" fill="#f2ad97"/></g></g></g><g><path d="m196.16 75.703c-17.961 0-33.268-9.364-39.183-22.506-11.297 1.288-20.074 10.875-20.074 22.517v18.248c0 19.197 15.562 34.759 34.759 34.759 19.197 0 34.759-15.562 34.759-34.759v-18.248c0-.359-.011-.715-.027-1.07-3.277.682-6.701 1.059-10.234 1.059z" fill="#ffd2c0"/></g><g><path d="m202.643 75.27v14.914c0 19.197-15.562 34.759-34.759 34.759-8.637 0-16.531-3.157-22.61-8.371 6.375 7.433 15.828 12.149 26.388 12.149 19.197 0 34.759-15.562 34.759-34.759v-18.248c0-.359-.015-.714-.031-1.069-1.228.255-2.479.46-3.747.625z" fill="#fcc4ae"/></g><g><circle cx="186.775" cy="85.926" fill="#995222" r="3.999"/></g><g><circle cx="156.55" cy="85.926" fill="#995222" r="3.999"/></g><g><path d="m171.662 111.712c4.73 0 8.564-2.287 8.564-5.108h-17.128c0 2.821 3.835 5.108 8.564 5.108z" fill="#995222"/></g></g></g></g><g><path d="m113.5 136.607h-90.333c-2.209 0-4-1.791-4-4v-65.243c0-2.209 1.791-4 4-4h90.333c2.209 0 4 1.791 4 4v65.243c0 2.209-1.791 4-4 4z" fill="#377de2"/></g><g><path d="m113.5 63.364h-1v64.243c0 2.209-1.791 4-4 4h-89.333v1c0 2.209 1.791 4 4 4h90.333c2.209 0 4-1.791 4-4v-65.243c0-2.209-1.791-4-4-4z" fill="#2266d3"/></g><g fill="#fff"><path d="m64.119 90.137c1.104 0 2-.896 2-2s-.896-2-2-2h-12.76c-1.104 0-2 .896-2 2v23.697c0 1.104.896 2 2 2h12.76c1.104 0 2-.896 2-2s-.896-2-2-2h-10.76v-10.583h6.203c1.104 0 2-.896 2-2s-.896-2-2-2h-6.203v-5.114z"/><path d="m44.593 86.137c-1.104 0-2 .896-2 2v15.764l-8.999-16.712c-.434-.806-1.36-1.215-2.25-.991-.889.224-1.511 1.023-1.511 1.939v23.697c0 1.104.896 2 2 2s2-.896 2-2v-15.764l8.999 16.712c.354.659 1.038 1.052 1.76 1.052.162 0 .327-.02.489-.061.889-.224 1.511-1.023 1.511-1.939v-23.697c.001-1.105-.894-2-1.999-2z"/><path d="m100.276 95.251h-3.646c-1.41 0-2.557-1.147-2.557-2.557s1.147-2.557 2.557-2.557h3.646c1.41 0 2.557 1.147 2.557 2.557 0 1.104.896 2 2 2s2-.896 2-2c0-3.616-2.941-6.557-6.557-6.557h-3.646c-3.616 0-6.557 2.941-6.557 6.557s2.941 6.557 6.557 6.557h3.646c1.41 0 2.557 1.147 2.557 2.557v5.469c0 1.41-1.147 2.557-2.557 2.557h-3.646c-1.41 0-2.557-1.147-2.557-2.557 0-1.104-.896-2-2-2s-2 .896-2 2c0 3.616 2.941 6.557 6.557 6.557h3.646c3.616 0 6.557-2.941 6.557-6.557v-5.469c0-3.616-2.941-6.557-6.557-6.557z"/><path d="m86.68 86.143c-1.105-.083-2.063.74-2.147 1.841l-1.394 18.126-3.176-4.537c-.375-.535-.986-.853-1.639-.853s-1.264.318-1.639.853l-3.176 4.537-1.394-18.126c-.084-1.101-1.035-1.923-2.147-1.841-1.102.085-1.925 1.046-1.841 2.147l1.823 23.697c.065.842.652 1.553 1.466 1.776.818.223 1.682-.09 2.167-.782l4.741-6.774 4.742 6.774c.381.543.997.853 1.639.853.175 0 .353-.023.528-.071.814-.223 1.401-.934 1.466-1.776l1.823-23.697c.083-1.101-.74-2.062-1.842-2.147z"/></g></g></svg>