<svg height="512" viewBox="0 0 58 58" width="512" xmlns="http://www.w3.org/2000/svg"><g id="Page-1" fill="none" fill-rule="evenodd"><g id="003---Bucket-and-Brush" fill-rule="nonzero"><path id="Shape" d="m6.77 19c.71176336-1.9930923 2.23012346-3.5941951 4.1826812-4.4106155 1.9525578-.8164203 4.1586926-.7726356 6.0773188.1206155 1.2703679-1.7269547 3.3069907-2.7209761 5.45-2.66.696864.0165198 1.3861848.1483017 2.04.39 1.3983438-2.067563 3.7935593-3.23198761 6.2832808-3.05459237 2.4897215.17739523 4.6956454 1.66965577 5.7867192 3.91459237 1.9289732.3083596 3.5802644 1.5515086 4.41 3.32l2 5.38-25.18-1z" fill="#b0d3f0"/><path id="Shape" d="m33.58 58.0000049-22.05-.0000049c-1.4614615.0017866-2.71155246-1.0498102-2.96-2.49l-2.16-12.51h8.59c1.6568542 0 3-1.3431458 3-3v-11h4.42l3.12 7.41c1.4309465 3.4216496 3.7681758 6.3881329 6.76 8.58l-1.68 9.49c-.1538448.874123.0872702 1.7715014.6585025 2.4508047s1.4139409 1.0707962 2.3014975 1.0692002z" fill="#c03a2b"/><path id="Shape" d="m18 55h-5.632c-.4865243-.0002161-.9022909-.3505574-.985-.83l-.514-2.97c-.0938884-.5442766.2712234-1.0616116.8155-1.1555s1.0616116.2712234 1.1555.8155l.37 2.14h4.79c.5522847 0 1 .4477153 1 1s-.4477153 1-1 1z" fill="#fff"/><path id="Shape" d="m18 22v18c0 1.6568542-1.3431458 3-3 3h-12c-1.65685425 0-3-1.3431458-3-3v-18c0-1.6568542 1.34314575-3 3-3h12c1.2713341-.0061167 2.40537.798164 2.82 2 .1211006.3193958.1821256.6584234.18 1z" fill="#f0c419"/><path id="Shape" d="m47 3v32h-6v-32c0-1.65685425 1.3431458-3 3-3s3 1.34314575 3 3z" fill="#a56a43"/><path id="Shape" d="m41 29v4h-5c-1.6568542 0-3 1.3431458-3 3v2.92c-1.1993989-1.307969-2.1636023-2.8134796-2.85-4.45l-2.31-5.47z" fill="#c03a2b"/><path id="Shape" d="m33 38.92v2.08l-.7 3.99c-2.9918242-2.1918671-5.3290535-5.1583504-6.76-8.58l-3.12-7.41-.22-.53c-.447289-1.2493624.1594939-2.6305101 1.3822192-3.1461812 1.2227254-.5156711 2.6353046.0138325 3.2177808 1.2061812l1.04 2.47 2.31 5.47c.6863977 1.6365204 1.6506011 3.142031 2.85 4.45z" fill="#ecf0f1"/><path id="Shape" d="m54.42 58h-20.84c-.8875566.0016009-1.7302652-.389892-2.3014975-1.0691953s-.8123473-1.5766817-.6585025-2.4508047l1.68-9.49.7-3.99 11-2 11 2 2.38 13.48c.1538448.874123-.0872702 1.7715014-.6585025 2.4508047s-1.4139409 1.0707962-2.3014975 1.0691953z" fill="#f0c419"/><g fill="#f29c1f"><path id="Shape" d="m38 47.09-.99 10.91h-2.01v-.09l1-11c.0497057-.5522847.5377153-.9597056 1.09-.9099999.5522847.0497056.9597056.5377152.91 1.0899999z"/><path id="Shape" d="m42 52v6h-2v-6c0-.5522847.4477153-1 1-1s1 .4477153 1 1z"/><path id="Shape" d="m53 57.91v.09h-2.01l-.99-10.91c-.0497056-.5522847.3577153-1.0402943.91-1.0899999.5522847-.0497057 1.0402943.3577152 1.09.9099999z"/><path id="Shape" d="m48 52v6h-2v-6c0-.5522847.4477153-1 1-1s1 .4477153 1 1z"/></g><path id="Shape" d="m41 21v8h-13.16l-1.04-2.47c-.5824762-1.1923487-1.9950554-1.7218523-3.2177808-1.2061812-1.2227253.5156711-1.8295082 1.8968188-1.3822192 3.1461812l.22.53h-4.42v-7c.0021256-.3415766-.0588994-.6806042-.18-1z" fill="#e64c3c"/><circle id="Oval" cx="18" cy="4" fill="#b0d3f0" r="3"/><circle id="Oval" cx="5.5" cy="8.5" fill="#b0d3f0" r="3.5"/><path id="Shape" d="m6 19v10c0 .5522847-.44771525 1-1 1s-1-.4477153-1-1v-10z" fill="#f29c1f"/><path id="Shape" d="m11 19v5c0 .5522847-.4477153 1-1 1-.55228475 0-1-.4477153-1-1v-5z" fill="#f29c1f"/><path id="Shape" d="m55 36v5h-22v-5c0-1.6568542 1.3431458-3 3-3h16c1.6568542 0 3 1.3431458 3 3z" fill="#805333"/></g></g></svg>