<svg height="512" viewBox="0 0 64 64" width="512" xmlns="http://www.w3.org/2000/svg"><g id="Layer_42" data-name="Layer 42"><path d="m8 11v-8h5a2 2 0 0 1 2 2 3.409 3.409 0 0 1 2.411-1 2.587 2.587 0 0 1 2.589 2.588v4.412z" fill="#414042"/><path d="m56 12v-5a4 4 0 0 0 -4-4h-1a2 2 0 0 0 -2 2 3.409 3.409 0 0 0 -2.411-1 2.587 2.587 0 0 0 -2.589 2.588v5.412z" fill="#58595b"/><path d="m10.131 13.967a3.984 3.984 0 0 0 7.738 0l-3.869-.967z" fill="#d1e7f8"/><path d="m18 10a1 1 0 0 0 -1-1h-6a1 1 0 0 0 -1 1v3a3.957 3.957 0 0 0 .131.967l3.869-.967 3.869.967a3.957 3.957 0 0 0 .131-.967z" fill="#ffb8a5"/><path d="m19.5 13a1.5 1.5 0 0 0 0-3h-1.5v3z" fill="#ffac96"/><path d="m8.5 10a1.5 1.5 0 0 0 0 3h1.5v-3z" fill="#ffac96"/><path d="m20 38v1h1a3 3 0 0 0 3-3v-8h-4z" fill="#ffb8a5"/><path d="m8 28h-4v8a3 3 0 0 0 3 3h1z" fill="#ffb8a5"/><path d="m14 61h8v-2a2 2 0 0 0 -2-2h-6z" fill="#6d6e71"/><path d="m8 57a2 2 0 0 0 -2 2v2h8v-4z" fill="#808285"/><path d="m54 10a1 1 0 0 0 -1-1h-6a1 1 0 0 0 -1 1v3a3.957 3.957 0 0 0 .131.967l3.869-.967 3.869.967a3.957 3.957 0 0 0 .131-.967z" fill="#ffb8a5"/><path d="m46.131 13.967a3.984 3.984 0 0 0 7.738 0l-3.869-.967z" fill="#d1e7f8"/><path d="m8 38v19h6 6v-19-1h-12z" fill="#58595b"/><path d="m44 37v1 19h6 6v-19-1z" fill="#58595b"/><path d="m55.5 13a1.5 1.5 0 0 0 0-3h-1.5v3z" fill="#ffac96"/><path d="m44.5 10a1.5 1.5 0 0 0 0 3h1.5v-3z" fill="#ffac96"/><path d="m57 39a3 3 0 0 0 3-3v-8h-4v11z" fill="#ffb8a5"/><path d="m44 28h-4v8a3 3 0 0 0 3 3h1z" fill="#ffb8a5"/><path d="m50 61h8v-2a2 2 0 0 0 -2-2h-6z" fill="#6d6e71"/><path d="m44 57a2 2 0 0 0 -2 2v2h8v-4z" fill="#808285"/><path d="m55 19h-1a4 4 0 0 1 -8 0h-1a6 6 0 0 0 -6 6v3h5v9h12v-9h5v-3a6 6 0 0 0 -6-6z" fill="#91dc5a"/><path d="m55 19h-1a4 4 0 0 1 -8 0h-1a6 6 0 0 0 -6 6v1a6 6 0 0 1 6-6h1a4 4 0 0 0 8 0h1a6 6 0 0 1 6 6v-1a6 6 0 0 0 -6-6z" fill="#7ed63e"/><path d="m53 19a1 1 0 0 1 -1-1v-1.546a3.936 3.936 0 0 1 -4 0v1.546a1 1 0 0 1 -1 1h-1a4 4 0 0 0 8 0z" fill="#ffac96"/><path d="m19 19h-1l-4 4-4-4h-1a6 6 0 0 0 -6 6v3h5v9h12v-9h5v-3a6 6 0 0 0 -6-6z" fill="#ed1c24"/><path d="m19 19h-1l-4 4-4-4h-1a6 6 0 0 0 -6 6v1a6 6 0 0 1 6-6h1l4 4 4-4h1a6 6 0 0 1 6 6v-1a6 6 0 0 0 -6-6z" fill="#d80027"/><path d="m18 19h-1a1 1 0 0 1 -1-1v-1.546a3.936 3.936 0 0 1 -4 0v1.546a1 1 0 0 1 -1 1h-1l4 4z" fill="#ffac96"/><g fill="#ed1c24"><path d="m24 42.76v.24a1 1 0 0 0 2 0v-.24a.761.761 0 0 1 .76-.76h.48a.762.762 0 0 1 .76.764.994.994 0 0 1 -.553.894l-2.894 1.447a1 1 0 0 0 -.553.895v1a1 1 0 0 0 1 1h4a1 1 0 0 0 0-2h-1.764l1.106-.553a2.984 2.984 0 0 0 1.658-2.687 2.763 2.763 0 0 0 -2.76-2.76h-.48a2.763 2.763 0 0 0 -2.76 2.76z"/><path d="m32 48a1 1 0 0 0 1-1v-2.5a.5.5 0 0 1 1 0v2.5a1 1 0 0 0 2 0v-2.5a.5.5 0 0 1 1 0v2.5a1 1 0 0 0 2 0v-2.5a2.5 2.5 0 0 0 -2.5-2.5 2.471 2.471 0 0 0 -1.5.513 2.471 2.471 0 0 0 -1.5-.513 2.5 2.5 0 0 0 -2.5 2.5v2.5a1 1 0 0 0 1 1z"/><path d="m40.707 52.293-2.121-2.121a1 1 0 0 0 -1.414 1.414l.414.414h-11.172l.414-.414a1 1 0 1 0 -1.414-1.414l-2.121 2.121a1 1 0 0 0 0 1.414l2.121 2.121a1 1 0 1 0 1.414-1.414l-.414-.414h11.172l-.414.414a1 1 0 1 0 1.414 1.414l2.121-2.121a1 1 0 0 0 0-1.414z"/></g><path d="m50 40a1 1 0 0 1 1 1v16a0 0 0 0 1 0 0h-2a0 0 0 0 1 0 0v-16a1 1 0 0 1 1-1z" fill="#414042"/><path d="m14 40a1 1 0 0 1 1 1v16a0 0 0 0 1 0 0h-2a0 0 0 0 1 0 0v-16a1 1 0 0 1 1-1z" fill="#414042"/></g></svg>