<svg id="Capa_1" enable-background="new 0 0 512 512" height="512" viewBox="0 0 512 512" width="512" xmlns="http://www.w3.org/2000/svg"><g><g><g clip-rule="evenodd" fill-rule="evenodd"><path d="m140.189 363.3 11.133 56.555-78.582 84.644h111.515l31.637-36.993 33.272-6.826 85.599-85.599c5.88-5.88 5.871-15.506 0-21.377s-15.473-5.879-21.354-.023l9.498-9.499c5.879-5.878 5.879-15.498 0-21.377-5.862-5.862-15.444-5.879-21.327-.049l13.199-13.199c5.878-5.879 5.878-15.498 0-21.377-5.879-5.879-15.498-5.879-21.377 0l-13.249 13.249c5.879-5.878 5.879-15.499 0-21.377-5.878-5.878-15.498-5.879-21.377 0l-74.747 74.746 2.542-42.651c.454-7.61-5.463-15.276-13.841-16.864l-11.157-2.115z" fill="#ffdaaa"/><path d="m249.163 460.681-33.272 6.825 25.109 36.993 29.999.001 41.152-73.313-2.315-31.179z" fill="#ffb680"/><path d="m241 504.499-25.109-36.993-31.636 36.993z" fill="#9ce4f8"/><path d="m72.739 504.5 57.082-61.485-26.013 4.393c-20.454 3.455-35.184 11.075-46.072 21.293-10.603 9.951-17.562 22.366-22.618 35.798z" fill="#9ce4f8"/><path d="m312.151 431.187-41.151 73.312h205.883c-5.047-13.41-11.991-25.805-22.563-35.747-10.893-10.244-25.639-17.884-46.128-21.345z" fill="#fff"/><path d="m184.029 354.799 74.747-74.747c5.879-5.879 15.499-5.878 21.377 0 5.879 5.879 5.879 15.499.001 21.376l13.248-13.248c5.879-5.879 15.498-5.879 21.377 0s5.879 15.498 0 21.377l-13.199 13.199c5.883-5.829 15.465-5.813 21.327.049 5.879 5.879 5.879 15.499 0 21.377l-9.498 9.499c5.881-5.856 15.483-5.848 21.354.023.235.235.46.476.676.722 35.434-26.273 58.684-66.594 58.684-100.046l-.001-43.922-234.843-41.298-41.297 41.297v43.922c0 24.226 12.2 52.054 32.384 75.542l11.207-36.754 11.157 2.115c8.378 1.588 14.295 9.254 13.841 16.864z" fill="#ffdaaa"/><path d="m93.628 482-20.888 22.499 111.514.001 19.242-22.5z" fill="#ffb680"/><path d="m140.482 187.958-22.5 22.5v43.922c0 24.226 12.2 52.054 32.384 75.542l6.692-21.947c-10.565-17.808-16.577-36.589-16.577-53.595v-66.422z" fill="#ffb680"/><path d="m97.287 400.008h50.128l-7.226-36.708 10.178-33.378c-20.185-23.488-32.384-51.316-32.384-75.542v-43.922l41.297-41.297 234.842 41.297.001 43.922c0 33.452-23.25 73.774-58.684 100.046 5.193 5.919 4.968 15.011-.676 20.655l-24.927 24.927h104.982c8.249 0 14.993-6.751 15-15l.186-213.698c.074-85.907-89.739-163.81-173.952-163.81-84.212 0-174.025 77.903-173.951 163.811l.186 213.698c.007 8.249 6.751 14.999 15 14.999z" fill="#bababe"/></g><g><path d="m338.065 70.61h-15v-15h15zm-30-15.001h-15v-15h15z" fill="#fff"/></g></g><g><path d="m401.883 497h15v15h-15z"/><path d="m431.883 512h55.836l-3.817-10.142c-13.509-35.896-37.17-55.548-74.461-61.847l-90.245-15.241-1.282-17.262h96.904c12.396 0 22.49-10.091 22.5-22.493l.186-213.698c.037-42.348-21.031-85.961-57.801-119.657-35.827-32.831-80.895-51.66-123.651-51.66-39.838 0-82.572 16.776-117.243 46.028l9.673 11.465c32.008-27.005 71.216-42.493 107.57-42.493 38.474 0 80.91 17.839 113.516 47.72 33.674 30.858 52.968 70.437 52.935 108.584l-.186 213.699c-.003 4.139-3.368 7.506-7.5 7.506h-86.876l12.124-12.124c6.489-6.489 8.185-15.968 5.124-24.039 33.974-27.402 56.434-67.645 56.434-101.966l-.001-50.218-244.886-43.064-46.253 46.254v47.028c0 24.747 11.45 52.696 31.527 77.237l-9.541 31.291 5.827 29.601h-41.009c-4.132 0-7.497-3.367-7.5-7.507l-.186-213.698c-.031-36.433 16.968-73.28 47.867-103.754l-10.533-10.68c-33.782 33.318-52.368 73.963-52.333 114.447l.186 213.697c.01 12.403 10.104 22.494 22.5 22.494h43.96l1.977 10.044-17.166 18.491-23.499 3.968c-37.29 6.298-60.95 25.95-74.46 61.847l-3.819 10.142h362.602v-15h-103.073l32.297-57.538 90.835 15.341c28.216 4.766 46.653 17.931 58.56 42.197h-33.619zm-306.401-257.62v-40.815l36.341-36.342 224.798 39.531.001 37.626c0 30.103-20.358 65.862-51.126 90.518-.96-.563-1.95-1.065-2.98-1.478 1.489-3.051 2.299-6.42 2.299-9.926 0-6.053-2.346-11.731-6.605-15.992-1.93-1.93-4.133-3.411-6.476-4.496 7.118-8.872 6.572-21.904-1.652-30.129-4.259-4.261-9.939-6.606-15.992-6.606-5.213 0-10.144 1.749-14.134 4.954-1.101-2.376-2.598-4.573-4.5-6.475-4.259-4.26-9.938-6.605-15.991-6.606 0 0 0 0-.001 0-6.053 0-11.732 2.347-15.991 6.605l-60.782 60.783 1.367-22.938c.691-11.589-8.063-22.429-19.931-24.678l-17.766-3.369-8.964 29.399c-13.878-19.61-21.915-41.151-21.915-59.566zm33.936 167.776-11.508-58.463 18.875-61.903 4.548.862c4.904.929 7.967 5.429 7.75 9.048l-2.373 39.81-6.517 6.518 10.606 10.606 83.278-83.279c1.427-1.426 3.339-2.212 5.385-2.212s3.958.786 5.385 2.213c1.426 1.427 2.212 3.339 2.212 5.385s-.786 3.958-2.213 5.385l-55.734 55.733 10.606 10.607 68.983-68.983c1.427-1.427 3.339-2.212 5.385-2.212s3.958.785 5.385 2.212c2.969 2.97 2.969 7.803 0 10.771l-68.983 68.982 10.606 10.607 55.735-55.735c2.969-2.97 7.801-2.97 10.77.001 1.427 1.426 2.212 3.339 2.212 5.385s-.786 3.959-2.212 5.386l-55.734 55.734 10.606 10.605 46.222-46.221c1.426-1.42 3.334-2.203 5.376-2.203 2.046 0 3.958.785 5.385 2.212 2.97 2.971 2.97 7.803 0 10.771l-84.008 84.008-33.587 6.891-31.059 36.323h-90.864zm55.787 57.693 11.64 17.151h-26.308zm-110.148-25.046 4.252-.718-39.841 42.915h-22.97c11.908-24.268 30.345-37.433 58.559-42.197zm139.917 42.197-16.564-24.405 24.466-5.02 50.693-50.693.936 12.606-37.896 67.512z"/></g></g></svg>