<svg id="Capa_1" enable-background="new 0 0 495.913 495.913" height="512" viewBox="0 0 495.913 495.913" width="512" xmlns="http://www.w3.org/2000/svg"><g><g><path d="m363.786 149.224h26.508c3.428 0 6.489-2.145 7.659-5.367l13.404-36.911c6.545-18.023 21.594-31.632 40.182-36.336 12.755-3.228 24.111 8.778 20.178 21.334l-38.103 121.63c-5.198 16.591-13.421 32.077-24.255 45.674l-4.783 6.004c-2.834 3.557-3.703 8.296-2.315 12.627l63.375 197.731c.737 2.298-.978 4.648-3.391 4.648h-154.808c-1.563 0-2.944-1.019-3.403-2.513l-37.261-122.383-77.487 7.524-34.745-138.565 179.319-90.425z" fill="#ffdfcf"/></g><g><path d="m206.304 42.186-21.336-20.963c-8.211-8.067-21.596-7.264-28.783 1.727-5.798 7.253-5.651 17.595.35 24.68l16.445 19.416 42.817 49.978 37.828-33.977z" fill="#ffdfcf"/></g><g><path d="m171.191 126.844-51.466-68.148c-5.562-7.364-4.368-17.796 2.713-23.714 7.259-6.066 18.044-5.182 24.217 1.987l26.625 30.918 45.162 52.194-32.273 28.569z" fill="#ffdfcf"/></g><g><path d="m171.191 126.844-32.844-43.491c-6.73-8.911-19.508-10.466-28.178-3.429-8.167 6.629-9.698 18.498-3.48 26.982l35.566 48.531 41.583 62.933 36.331-30.983z" fill="#ffdfcf"/></g><g><path d="m142.254 155.438-7.757-10.584c-5.82-7.941-17.084-9.433-24.77-3.281-7.115 5.695-8.593 15.933-3.379 23.408l55.31 82.545 22.179-18.404z" fill="#ffdfcf"/></g><g><path d="m299.875 65.332c1.308-3.344 1.922-7.035 1.666-10.898-.842-12.684-11.293-22.889-23.993-23.455-6.514-.29-12.512 1.895-17.134 5.693-1.705 1.401-4.217 1-5.357-.888-4.412-7.306-12.427-12.191-21.584-12.191-11.382 0-20.996 7.547-24.124 17.909-.454 1.505-1.89 2.459-3.462 2.457-.01 0-.019 0-.029 0-17.427 0-31.554 14.127-31.554 31.554 0 13.07 7.946 24.284 19.272 29.074l60.049 3.062s40.473-18.253 41.002-19.046 5.248-23.271 5.248-23.271z" fill="#f9f3f1"/><path d="m336.312 302.518c-1.824 0-3.637.119-5.605.372l-31.813 4.196c-8.83 1.165-14.837-8.716-9.738-16.019l99.028-141.843h-24.397l-29.926-15.328-179.319 90.425 34.745 138.565 77.487-7.524 37.261 122.383c.46 1.494 1.84 2.513 3.403 2.513h47.997l-19.333-62.853c-4.077-13.253 2.766-27.406 15.685-32.443 17.55-6.842 28.426-24.059 27.063-42.839-1.61-22.209-20.294-39.605-42.538-39.605z" fill="#ffcebf"/><path d="m354.887 161.972c17.053 3.977 29.761 19.263 29.761 37.528 0 19.146-13.962 35.024-32.258 38.025-2.821.463-4.782 3.085-4.304 5.903.278 1.638.424 3.324.424 5.044 0 17.15-14.442 30.928-31.828 29.834-13.158-.828-24.057-10.381-27.104-22.786l-14.543-59.523 48.977-40.814z" fill="#f9f3f1"/><g id="XMLID_226_"><g><path d="m302.832 158.548 41.47-49.13c3.8-4.5 9.28-6.9 14.85-6.9 3.21 0 6.46.8 9.43 2.45 10.06 5.59 13.08 18.66 6.49 28.1l-127.19 182.18c-5.52 7.91.98 18.61 10.54 17.35l74.9-9.88c1.01-.13 2-.2 2.99-.2 11.7 0 21.72 9.04 22.59 21.05.72 9.92-5.12 19.15-14.38 22.76l-141.46 55.15c-20.01 7.8-41.58 10.73-62.94 8.57l-11.35-1.16-75.451 46.202c-4.228 2.589-9.76.41-11.086-4.367l-41.963-151.189c-.816-2.939.24-6.079 2.665-7.928l25.345-19.328 5.79-17.01c4.4-12.91 11.76-24.61 21.49-34.17l176.65-174.55c3.37-3.33 7.77-5 12.19-5 4.12 0 8.24 1.46 11.54 4.4 7.33 6.54 7.77 17.85.97 24.93l-34.86 36.34 55.51-57.09c3.86-3.97 9-5.98 14.15-5.98 4.64 0 9.29 1.63 13.03 4.92 8.28 7.29 8.96 19.93 1.58 28.06l-46.27 49 46-48.7c.09-.1.18-.2.27-.3l20.94-22.17c3.4-3.59 7.99-5.42 12.6-5.42 3.99 0 7.99 1.37 11.24 4.15 7.19 6.15 8.11 16.94 2.07 24.21z" fill="#ffdfcf"/></g></g><g><path d="m5.066 336.805 31.539-23.303c3.284-2.427 5.749-5.798 7.065-9.664l3.769-11.073c4.4-12.91 11.76-24.61 21.49-34.17l176.65-174.55c3.37-3.33 7.77-5 12.19-5 1.325 0 2.661.175 3.958.478.179-4.968-1.769-9.991-5.785-13.575-3.3-2.94-7.42-4.4-11.54-4.4-4.42 0-8.82 1.67-12.19 5l-176.65 174.55c-9.73 9.56-17.09 21.26-21.49 34.17l-5.79 17.01-25.345 19.327c-2.425 1.85-3.481 4.989-2.665 7.928z" fill="#ffcebf"/></g><path d="m368.582 104.968c-2.97-1.65-6.22-2.45-9.43-2.45-5.57 0-11.05 2.4-15.029 7.23l-82.563 94.209c10.304 10.377 27.501 9.861 36.966-1.433l76.693-91.496c-1.647-2.43-3.878-4.527-6.637-6.06z" fill="#ffcebf"/><g fill="#f9f3f1"><circle cx="30.182" cy="159.056" r="16.55"/><circle cx="475.564" cy="231.598" r="20.349"/><circle cx="38.884" cy="53.528" r="25.517"/><path d="m446.481 344.224c.621-2.468.906-5.069.802-7.753-.534-13.849-11.686-25.287-25.519-26.143-15.85-.981-29.012 11.583-29.012 27.222 0 8.63 4.01 16.32 10.267 21.316 4.122 3.291 6.891 7.95 7.708 13.161.083.527.187 1.058.316 1.593 2.038 8.483 9.439 14.846 18.142 15.449 11.767.816 21.566-8.488 21.566-20.08 0-3.443-.868-6.68-2.396-9.51-2.527-4.68-3.172-10.099-1.874-15.255z"/></g></g><g><path d="m197.091 151.41c8.718 7.705 21.915 7.339 30.191-.839l69.151-68.329c3.37-3.33 7.77-5 12.19-5 .564 0 1.138.039 1.702.099-1.081-3.087-2.948-5.952-5.583-8.273-3.74-3.29-8.39-4.92-13.03-4.92-4.751 0-9.481 1.733-13.218 5.115l-2.317 2.29-54.125 55.665z" fill="#ffcebf"/></g><g><path d="m228.022 178.75c9.149 8.087 23.05 7.51 31.497-1.307l93.162-97.238c.686-.716 1.447-1.351 2.218-1.924-.964-1.694-2.233-3.254-3.798-4.593-3.25-2.78-7.25-4.15-11.24-4.15-4.006 0-7.994 1.385-11.202 4.103l-10.884 11.36-57.724 61.127 46.27-49c.188-.206-40.705 42.426-78.299 81.622z" fill="#ffcebf"/></g></g></svg>