<svg id="Capa_1" enable-background="new 0 0 514 514" height="512" viewBox="0 0 514 514" width="512" xmlns="http://www.w3.org/2000/svg"><g><g><path clip-rule="evenodd" d="m386.304 123.323 22.609 44.686 38.91 12.737v-126.17l-20.841-21.083-40.678 21.083z" fill="#dddaec" fill-rule="evenodd"/></g><g><path clip-rule="evenodd" d="m386.304 54.576h61.518 10.016c5.406 0 9.817-4.411 9.817-9.789v-25.069c0-5.378-4.41-9.789-9.817-9.789h-81.55c-5.406 0-9.817 4.411-9.817 9.789v25.069c0 5.378 4.41 9.789 9.817 9.789z" fill="#375e7d" fill-rule="evenodd"/></g><g><path clip-rule="evenodd" d="m386.304 77.112h32.239c11.353 0 9.76 9.276 9.76 20.402v65.02l19.52 18.211v-126.169h-61.518v22.536z" fill="#beb9dd" fill-rule="evenodd"/></g><g><path clip-rule="evenodd" d="m447.054 44.787c0 5.378-4.439 9.789-9.817 9.789h10.585 10.016c5.406 0 9.817-4.411 9.817-9.789v-25.069c0-5.378-4.41-9.789-9.817-9.789h-20.601c5.378 0 9.817 4.411 9.817 9.789z" fill="#2b4d66" fill-rule="evenodd"/></g><g><path clip-rule="evenodd" d="m439.855 506.471c8.394 0 15.28-6.886 15.28-15.28v-243.49h38.356c7.569.085 12.833-2.874 12.947-7.598v-.313c-.057-2.675-1.764-5.919-5.577-9.476l-53.039-49.569-176.046-164.413c-6.26-5.862-10.528-8.764-14.768-8.764-4.268 0-8.508 2.902-14.768 8.764l-229.114 213.982c-3.813 3.557-5.52 6.801-5.577 9.476v.313c.114 4.724 5.378 7.683 12.947 7.598h38.384v243.49c0 8.394 6.857 15.28 15.252 15.28z" fill="#ffd772" fill-rule="evenodd"/></g><g><path clip-rule="evenodd" d="m163.422 372.818-12.662 3.898c-28.056 8.65-38.3 36.451-38.3 62.601v67.154h54.689c66.092-50.359-3.727-133.653-3.727-133.653z" fill="#3bc3a4" fill-rule="evenodd"/></g><g><path clip-rule="evenodd" d="m350.566 372.818s-67.802 60.54-3.728 133.654h54.689v-67.154c0-26.179-10.215-53.951-38.3-62.601z" fill="#3bc3a4" fill-rule="evenodd"/></g><g><path clip-rule="evenodd" d="m173.352 252.31h-15.678c-7.256 0-13.231 5.89-13.231 13.175v7.341c0 14.142 14.085 21.797 28.568 21.939h3.045c8.991-13.431 7.027-28.569-2.704-42.455z" fill="#ffbc85" fill-rule="evenodd"/></g><g><path clip-rule="evenodd" d="m216.716 199.668c-3.415 26.008-34.003 27.516-43.364 34.715v43.28c0 5.52.939 11.297 2.703 17.102 5.719 18.866 20.003 38.329 38.214 51.561 6.801 4.923 14.142 8.992 21.768 11.809 7.597 2.817 14.284 4.211 20.971 4.211s13.374-1.394 20.942-4.211c7.654-2.817 14.995-6.886 21.768-11.809 18.211-13.232 32.495-32.695 38.214-51.561 1.764-5.805 2.732-11.581 2.732-17.102v-43.28c-23.447-49.284-88.75-8.195-123.948-34.715z" fill="#ffe5c1" fill-rule="evenodd"/></g><g><path clip-rule="evenodd" d="m337.932 294.765h3.045c14.483-.142 28.568-7.797 28.568-21.939v-7.341c0-7.285-5.947-13.175-13.231-13.175h-15.65c-14.911 10.984-20.146 24.955-2.732 42.455z" fill="#ffbc85" fill-rule="evenodd"/></g><g><path clip-rule="evenodd" d="m340.664 252.31c-6.744-14.171-16.93-20.858-28.881-23.845v37.276c0 5.52-2.333 11.297-4.097 17.13-5.719 18.866-19.975 38.301-38.186 51.532-6.801 4.923-14.142 8.992-21.796 11.809-7.569 2.817-14.256 4.211-20.942 4.211-2.39 0-4.78-.171-7.227-.541 5.264 3.329 10.813 6.146 16.504 8.252 7.597 2.817 14.284 4.211 20.971 4.211s13.374-1.394 20.942-4.211c7.654-2.817 14.995-6.886 21.768-11.809 18.211-13.232 32.495-32.695 38.214-51.561 1.764-5.805 2.732-11.581 2.732-17.102v-25.352z" fill="#fed1a3" fill-rule="evenodd"/></g><g><path clip-rule="evenodd" d="m173.352 252.31c9.361-7.199 39.95-8.707 43.364-34.715 5.236-12.719 4.809-46.553-7.882-60.666-30.873 5.406-44.104 29.252-40.007 60.723z" fill="#2b4d66" fill-rule="evenodd"/></g><g><path clip-rule="evenodd" d="m216.716 217.595c35.198 26.52 100.501-14.569 123.947 34.715 4.61-35.341 5.634-69.658-25.865-96.434-29.109-24.728-92.05-25.638-105.964 1.053-6.231 14.597-5.946 48.459 7.882 60.666z" fill="#375e7d" fill-rule="evenodd"/></g><g><path clip-rule="evenodd" d="m284.552 143.953c27.942 23.76 30.275 53.439 27.231 84.512 11.951 2.988 22.137 9.675 28.881 23.845 4.61-35.341 5.634-69.658-25.865-96.434-9.504-8.053-22.564-13.573-36.365-16.447 2.162 1.394 4.211 2.931 6.118 4.524z" fill="#2b4d66" fill-rule="evenodd"/></g><g><path clip-rule="evenodd" d="m350.566 470.162h-187.144v-116.808c0-6.089 5.008-11.069 11.097-11.069h164.978c6.089 0 11.069 4.98 11.069 11.069z" fill="#dddaec" fill-rule="evenodd"/></g><g><path clip-rule="evenodd" d="m296.559 348.517c9.02 17.898 14.17 38.585 14.17 60.609 0 22.223-5.236 43.053-14.398 61.036h54.234v-97.345-19.463c0-6.089-4.979-11.069-11.069-11.069h-34.544-11.78c1.196 2.049 2.306 4.126 3.387 6.232z" fill="#beb9dd" fill-rule="evenodd"/></g><g><path clip-rule="evenodd" d="m296.332 470.162h-132.91-6.772c-2.931 0-5.349 2.419-5.349 5.35v14.512c0 8.85 7.085 16.106 15.849 16.447h179.689c8.764-.341 15.849-7.598 15.849-16.447v-14.512c0-2.931-2.39-5.35-5.349-5.35h-6.772z" fill="#beb9dd" fill-rule="evenodd"/></g><g><path clip-rule="evenodd" d="m308.453 475.512v14.512c0 8.85-7.057 16.106-15.849 16.447h54.234c8.764-.341 15.849-7.598 15.849-16.447v-14.512c0-2.931-2.39-5.35-5.349-5.35h-6.772-47.462c2.959 0 5.349 2.419 5.349 5.35z" fill="#a7a2d3" fill-rule="evenodd"/></g><g><path clip-rule="evenodd" d="m220.046 37.047c23.389 23.049 43.45 58.532 58.331 102.353.028 0 .028.028.057.028 13.8 2.874 26.861 8.394 36.365 16.447 31.499 26.776 30.475 61.093 25.865 96.434h15.65c7.284 0 13.231 5.89 13.231 13.175v7.341c0 14.142-14.085 21.797-28.568 21.939h-3.045c-5.065 16.703-16.816 33.862-32.068 46.752-.028.256-.028.512-.028.768h33.661c6.089 0 11.069 4.98 11.069 11.069v19.463l12.662 3.898c28.084 8.65 38.3 36.423 38.3 62.601v67.154h38.328c8.394 0 15.28-6.886 15.28-15.28v-243.49h38.356c7.569.085 12.833-2.874 12.947-7.598v-.313c-.057-2.675-1.764-5.919-5.577-9.476l-53.039-49.569-61.518-57.422-114.529-106.989c-6.26-5.862-10.528-8.764-14.768-8.764-4.268 0-8.508 2.902-14.768 8.764z" fill="#fbba58" fill-rule="evenodd"/></g><g><path d="m293.6 280.497c4.159 0 7.529-3.37 7.529-7.529v-6.545c0-4.158-3.37-7.529-7.529-7.529s-7.529 3.37-7.529 7.529v6.545c.001 4.159 3.371 7.529 7.529 7.529z"/><path d="m222.692 280.497c4.158 0 7.529-3.37 7.529-7.529v-6.545c0-4.158-3.371-7.529-7.529-7.529s-7.529 3.37-7.529 7.529v6.545c0 4.159 3.371 7.529 7.529 7.529z"/><path d="m258.141 320.52h.027c6.4-.007 12.409-2.508 16.922-7.04 2.933-2.947 2.922-7.714-.024-10.648-2.948-2.934-7.714-2.923-10.648.024-1.67 1.678-3.896 2.604-6.267 2.607-.003 0-.007 0-.01 0-2.381 0-4.622-.929-6.31-2.617-2.941-2.941-7.708-2.94-10.648-.001-2.94 2.94-2.94 7.707 0 10.647 4.534 4.533 10.555 7.028 16.958 7.028z"/><path d="m506.001 224.813-50.649-47.31v-115.398h2.487c9.564 0 17.346-7.768 17.346-17.317v-25.069c0-9.549-7.782-17.318-17.346-17.318h-81.551c-9.564 0-17.346 7.769-17.346 17.318v25.069c0 9.549 7.782 17.317 17.346 17.317h2.487v43.871l-101.861-95.146c-15.458-14.442-24.391-14.438-39.813-.001l-123.15 114.987c-3.039 2.837-3.202 7.601-.365 10.64 2.839 3.041 7.602 3.204 10.641.365l123.159-114.994c1.78-1.666 7.197-6.738 9.612-6.738 2.419 0 7.853 5.076 9.639 6.744l229.093 213.99c1.78 1.659.436 4.374-2.238 4.349h-38.357c-4.159 0-7.529 3.37-7.529 7.529v243.491c0 4.202-3.55 7.751-7.75 7.751h-30.8v-59.625c0-35.293-16.304-61.386-43.613-69.798l-7.348-2.262v-13.903c0-10.255-8.342-18.599-18.598-18.599h-16.055c8.834-10.073 15.669-21.307 19.9-32.546 17.123-.984 33.731-11.086 33.731-29.383v-7.342c0-11.416-9.313-20.703-20.76-20.703h-7.155c3.694-33.319 2.593-67.375-29.485-94.644-19.357-16.445-54.04-24.347-82.466-18.792-15.17 2.965-26.754 9.597-33.094 18.85-15.331 3.443-27.305 11.454-34.768 23.309-7.512 11.933-10.273 27.535-7.984 45.122l3.415 26.155h-7.103c-11.447 0-20.76 9.288-20.76 20.703v7.342c0 18.282 16.58 28.382 33.752 29.381 4.227 11.243 11.056 22.477 19.884 32.549h-16.031c-10.27 0-18.626 8.343-18.626 18.599v13.903l-7.352 2.263c-27.307 8.419-43.61 34.511-43.61 69.797v59.625h-30.798c-4.258 0-7.723-3.477-7.723-7.751v-243.493c0-4.158-3.371-7.529-7.529-7.529l-38.475.001c-2.607.034-3.929-2.685-2.141-4.356l79.103-73.869c3.039-2.838 3.202-7.602.364-10.641-2.838-3.037-7.603-3.202-10.641-.364l-79.104 73.87c-9.558 8.928-8.486 16.488-6.997 20.2 2.613 6.512 9.911 10.322 19.505 10.216h30.856v235.962c0 12.576 10.219 22.809 22.781 22.809h365.724c12.576 0 22.808-10.233 22.808-22.809v-235.961l30.738-.001c9.656.147 17-3.708 19.611-10.227 1.489-3.714 2.555-11.275-7.011-20.188zm-129.713-177.766c-1.24 0-2.288-1.035-2.288-2.26v-25.068c0-1.225 1.048-2.261 2.288-2.261h81.551c1.24 0 2.288 1.035 2.288 2.261v25.069c0 1.224-1.048 2.26-2.288 2.26h-81.551zm64.006 116.391-46.461-43.398v-57.935h46.461zm-92.102 114.225v-17.824h8.121c3.145 0 5.702 2.532 5.702 5.646v7.342c0 7.932-7.315 12.086-14.52 13.656.444-2.986.697-5.936.697-8.82zm-196.221-4.836v-7.342c0-3.113 2.558-5.646 5.702-5.646h8.15v17.824c0 2.883.253 5.833.695 8.818-7.235-1.57-14.547-5.724-14.547-13.654zm3.922 189.845c-6.748.395-12.122 5.994-12.122 12.84v14.513c0 3.151.618 6.159 1.729 8.918h-25.511v-59.625c0-13.601 3.214-46.227 32.986-55.406l2.918-.898zm59.748-302.489c3.623-6.691 12.287-11.68 24.454-14.058 5.152-1.007 10.583-1.488 16.1-1.488 20.089 0 41.257 6.382 53.727 16.975 23.431 19.919 27.023 44.454 25.271 70.591-16.897-15.157-40.953-13.944-62.734-12.844-19.569.986-38.056 1.917-50.934-7.578-10.302-9.419-11.18-38.723-5.884-51.598zm-39.348 56.498c-1.921-14.761-1.05-38.912 22.056-48.901-2.422 16.594-.626 39.233 10.203 52.175-2.962 10.664-12.742 15.07-25.944 19.895-1.076.393-2.124.775-3.139 1.158zm4.588 60.982v-20.99c1.961-.875 4.451-1.787 6.896-2.681 11.041-4.035 26.774-9.786 33.521-24.953 15.614 7.191 34.022 6.259 51.92 5.356 25.944-1.314 48.429-2.432 59.916 19.709v23.558c0 4.694-.826 9.684-2.363 14.78-.018.056-.036.113-.053.17-4.456 14.638-14.795 30.15-28.561 42.142h-90.33c-18.596-16.202-30.946-38.856-30.946-57.091zm174.277 212.361c0 4.917-4.001 8.918-8.918 8.918h-178.465c-4.933 0-8.946-4.001-8.946-8.918v-12.333h84.151c4.158 0 7.529-3.37 7.529-7.529s-3.371-7.529-7.529-7.529h-72.029v-109.278c0-1.919 1.634-3.541 3.568-3.541h164.978c1.918 0 3.54 1.621 3.54 3.541v109.279h-68.644c-4.159 0-7.529 3.37-7.529 7.529 0 4.158 3.37 7.529 7.529 7.529h80.765zm38.84 8.918h-25.509c1.11-2.759 1.727-5.767 1.727-8.918v-14.513c0-6.846-5.373-12.445-12.122-12.84v-79.659l2.917.898c29.772 9.17 32.987 41.803 32.987 55.406z"/><path d="m279.902 407.902c0-4.159-3.37-7.529-7.529-7.529h-30.759c-4.158 0-7.529 3.37-7.529 7.529s3.371 7.529 7.529 7.529h30.759c4.159 0 7.529-3.37 7.529-7.529z"/></g></g></svg>