<svg enable-background="new 0 0 256 256" height="512" viewBox="0 0 256 256" width="512" xmlns="http://www.w3.org/2000/svg"><g id="Layer_1"><g><g><path d="m246.22 205.218h-236.44c-2.761 0-5-2.239-5-5v-14.752c0-2.761 2.239-5 5-5h236.44c2.761 0 5 2.239 5 5v14.752c0 2.762-2.238 5-5 5z" fill="#f0c020"/></g><g><path d="m22.604 205.218h19.891v38.748h-19.891z" fill="#7c7b7a"/></g><g><path d="m22.604 205.218h19.891v9.589h-19.891z" fill="#4c4944"/></g><g><path d="m213.505 205.218h19.891v38.748h-19.891z" fill="#7c7b7a"/></g><g><path d="m213.505 205.218h19.891v9.589h-19.891z" fill="#4c4944"/></g><g><path d="m193.243 77.276c0-36.032-29.21-65.242-65.242-65.242s-65.242 29.21-65.242 65.242c0 31.852 22.831 58.357 53.018 64.082l12.223 18.642 12.225-18.642c30.186-5.725 53.018-32.229 53.018-64.082z" fill="#fc5d3d"/></g><g><circle cx="128" cy="77.27" fill="#f0c020" r="20.773"/></g><g><g><path d="m242.22 198.718h-210.249c-3.303 0-3.308-5 0-5h207.749v-4.251c0-1.381 1.119-2.5 2.5-2.5s2.5 1.119 2.5 2.5v6.751c0 1.381-1.119 2.5-2.5 2.5zm-221.249 0h-7.191c-1.381 0-2.5-1.119-2.5-2.5s1.119-2.5 2.5-2.5h7.191c3.303 0 3.308 5 0 5z" fill="#f8e5b0"/></g><g><path d="m135.598 130.379c-.257-1.356.634-2.665 1.99-2.921 1.572-.298 3.131-.659 4.635-1.074 1.334-.366 2.708.415 3.075 1.746s-.414 2.708-1.745 3.075c-1.635.451-3.328.843-5.033 1.166-1.362.256-2.665-.639-2.922-1.992zm14.389-3.991c-.6-1.244-.077-2.738 1.167-3.337 40.195-19.358 37.301-84.683-12.103-95.622-1.349-.298-2.199-1.633-1.9-2.981.298-1.348 1.633-2.196 2.98-1.9 54.238 12.009 57.498 83.67 13.192 105.008-1.24.598-2.736.079-3.336-1.168z" fill="#ffcbc3"/></g><circle cx="72.87" cy="180.47" r="2.5"/><path d="m9.78 207.72h10.32v36.25c0 1.38 1.13 2.5 2.5 2.5 1.38 0 2.5-1.12 2.5-2.5v-36.25h14.9v36.25c0 1.38 1.12 2.5 2.49 2.5 1.38 0 2.5-1.12 2.5-2.5v-36.25h166.02v36.25c0 1.38 1.12 2.5 2.5 2.5 1.37 0 2.49-1.12 2.49-2.5v-36.25h14.9v36.25c0 1.38 1.12 2.5 2.5 2.5 1.37 0 2.5-1.12 2.5-2.5l-.009-36.25h10.329c4.13 0 7.5-3.37 7.5-7.5v-14.75c0-4.14-3.37-7.5-7.5-7.5h-163.35c-1.38 0-2.5 1.12-2.5 2.5s1.12 2.5 2.5 2.5h163.35c1.38 0 2.5 1.12 2.5 2.5v14.75c0 1.37-1.12 2.5-2.5 2.5-7.277 0-225.194 0-236.44 0-1.38 0-2.5-1.13-2.5-2.5v-14.75c0-1.38 1.12-2.5 2.5-2.5h53.09c1.38 0 2.5-1.12 2.5-2.5s-1.12-2.5-2.5-2.5h-53.09c-4.13 0-7.5 3.36-7.5 7.5v14.75c0 4.13 3.37 7.5 7.5 7.5z"/><path d="m114.26 143.61 11.65 17.76c.975 1.506 3.204 1.508 4.18 0l11.65-17.76c27.393-5.665 48.878-27.817 53.21-55.96.502-3.254-4.431-4.033-4.94-.76-4.02 26.18-24.22 47.08-50.25 52.01-.66.13-1.26.52-1.63 1.09l-10.13 15.45-10.13-15.45c-.37-.57-.96-.96-1.63-1.09-24.37-4.62-43.74-23.21-49.36-47.37-.3-1.32-1.66-2.18-3-1.87s-2.18 1.66-1.87 3c5.96 25.63 26.47 45.63 52.25 50.95z"/><path d="m63.13 84.72c1.37-.11 2.41-1.31 2.31-2.68 0-.01 0-.01-.01-.01-.1-1.36-1.28-2.4-2.67-2.3-1.374.102-2.413 1.291-2.31 2.68.091 1.179 1.005 2.31 2.68 2.31z"/><path d="m128 9.53c-35.416.021-64.865 27.311-67.54 62.52-.11 1.37.93 2.57 2.3 2.68s2.58-.95 2.68-2.3c2.48-32.47 29.96-57.9 62.56-57.9 34.638.021 62.74 27.993 62.74 62.78 0 3.223 4.83 3.356 5 .12 0-37.998-30.685-67.9-67.74-67.9z"/><path d="m100.083 74.77c-.357-.945-1.263-1.62-2.332-1.62-1.38 0-2.5 1.12-2.5 2.5v3.24c0 1.38 1.12 2.5 2.5 2.5 1.069 0 1.975-.675 2.332-1.62h4.788c.472 4.447 2.197 8.614 5.004 12.093l-3.394 3.389c-.92-.396-2.059-.234-2.79.498-.967.966-.979 2.552 0 3.53l2.3 2.3c.979.978 2.559.97 3.53 0 .759-.76.923-1.877.505-2.798l3.381-3.387c3.479 2.807 7.646 4.533 12.093 5.005v4.788c-.945.357-1.62 1.263-1.62 2.332 0 1.38 1.12 2.5 2.5 2.5h3.24c1.38 0 2.5-1.12 2.5-2.5 0-1.069-.676-1.975-1.62-2.332v-4.784c4.545-.488 8.701-2.291 12.082-5.019l3.392 3.397c-.418.922-.254 2.039.505 2.798.978.976 2.557.973 3.53 0 .248-.248-.501.501 2.3-2.3.968-.966.98-2.551 0-3.53-.731-.731-1.874-.894-2.791-.5l-3.403-3.398c2.728-3.382 4.531-7.537 5.018-12.082h4.785c.357.945 1.263 1.62 2.332 1.62 1.38 0 2.5-1.12 2.5-2.5v-3.24c0-1.38-1.12-2.5-2.5-2.5-1.069 0-1.975.676-2.332 1.62h-4.784c-.488-4.545-2.291-8.7-5.018-12.082l3.398-3.393c1.673.751 3.528-.473 3.528-2.265 0-1.278-.768-1.808-1.878-2.917 0 0 .001 0-.005-.005l-1.148-1.148c-.94-.94-2.59-.94-3.53 0-.759.759-.922 1.875-.506 2.797l-3.395 3.395c-3.381-2.726-7.535-4.528-12.078-5.016v-4.784c.945-.357 1.62-1.263 1.62-2.332 0-1.38-1.12-2.5-2.5-2.5h-3.24c-1.38 0-2.5 1.12-2.5 2.5 0 1.069.676 1.975 1.62 2.332v4.784c-4.545.488-8.701 2.291-12.082 5.019l-3.392-3.397c.417-.922.254-2.039-.505-2.798-.94-.94-2.59-.94-3.53 0l-2.3 2.3c-1.932 1.932.246 5.188 2.803 4.033l3.394 3.394c-2.728 3.382-4.532 7.538-5.02 12.084h-4.787zm27.917-15.77c10.06.02 18.26 8.21 18.27 18.27-.01 10.06-8.21 18.25-18.27 18.27-10.06-.02-18.26-8.21-18.27-18.27.01-10.06 8.21-18.25 18.27-18.27z"/><path d="m128 70.81c1.38 0 2.5-1.13 2.5-2.5v-1.01c0-1.38-1.12-2.5-2.5-2.5s-2.5 1.12-2.5 2.5v1.01c0 1.37 1.12 2.5 2.5 2.5z"/><path d="m119.89 80.27c1.37 0 2.5-1.12 2.5-2.5v-1c0-1.38-1.13-2.5-2.5-2.5-1.38 0-2.5 1.12-2.5 2.5v1c0 1.38 1.12 2.5 2.5 2.5z"/><path d="m136.11 80.27c1.381 0 2.5-1.12 2.5-2.5v-1c0-1.38-1.119-2.5-2.5-2.5-1.369 0-2.5 1.12-2.5 2.5v1c0 1.38 1.13 2.5 2.5 2.5z"/><path d="m128 89.74c1.38 0 2.5-1.12 2.5-2.5v-1.01c0-1.38-1.12-2.5-2.5-2.5s-2.5 1.12-2.5 2.5v1.01c0 1.38 1.12 2.5 2.5 2.5z"/></g></g></g></svg>