<svg height="512" viewBox="0 0 512 512" width="512" xmlns="http://www.w3.org/2000/svg"><g id="_FLAT" data-name="/ FLAT"><path d="m391.76465 128a96 96 0 0 0 -67.88233 28.11768l-27.88232 27.88232 48 48 27.88232-27.88232a96 96 0 0 0 28.11768-67.88221v-8.23547z" fill="#bebebe"/><path d="m325.56641 213.56653 18.43359 18.43347 27.88232-27.88232a96 96 0 0 0 28.11768-67.88221v-8.23547h-.33447a96.05853 96.05853 0 0 1 -74.09912 85.56653z" fill="#a2a2a2"/><path d="m120.23535 128a96 96 0 0 1 67.88233 28.11768l27.88232 27.88232-48 48-27.88232-27.88232a96 96 0 0 1 -28.11768-67.88221v-8.23547z" fill="#bebebe"/><path d="m320 328h-128l-72 168h272z" fill="#8c8c8c"/><path d="m130.286 472-10.286 24h272l-10.286-24z" fill="#338dbf"/><circle cx="256" cy="472" fill="#00b378" r="16"/><circle cx="256" cy="288" fill="#dfdfdf" r="128"/><g fill="#ededed"><path d="m368 321.352h16v93.295h-16z" transform="matrix(.514 -.857 .857 .514 -133.008 501.083)"/><path d="m384 274.523h16v98.955h-16z" transform="matrix(.243 -.97 .97 .243 -17.4 625.714)"/><path d="m339.668 260h96.664v16h-96.664z" transform="matrix(.91 -.414 .414 .91 -76.123 184.589)"/></g><path d="m304 336v4a20 20 0 0 1 -40 0v-36h-16v36a20 20 0 0 1 -40 0v-4h-16v4a35.981 35.981 0 0 0 64 22.59253 35.981 35.981 0 0 0 64-22.59253v-4z" fill="#8c8c8c"/><path d="m232 264h-16v-16a8 8 0 0 0 -16 0v16h-16v-16a24 24 0 0 1 48 0z" fill="#8c8c8c"/><path d="m89.352 360h93.295v16h-93.295z" fill="#ededed" transform="matrix(.857 -.515 .515 .857 -169.961 122.424)"/><path d="m70.523 316h98.955v16h-98.955z" fill="#ededed" transform="matrix(.97 -.243 .243 .97 -75.003 38.781)"/><path d="m116 219.668h16v96.664h-16z" fill="#ededed" transform="matrix(.414 -.91 .91 .414 -171.29 269.986)"/><path d="m328 264h-16v-16a8 8 0 0 0 -16 0v16h-16v-16a24 24 0 0 1 48 0z" fill="#8c8c8c"/><path d="m248 107.405v-27.405h-34.814l-50.24752-39.554a15.71033 15.71033 0 1 0 -17.68457 25.90625l13.82324 8.54908-28.406-16.23218a16.29067 16.29067 0 0 0 -23.88673 10.19315v.00013a16.29067 16.29067 0 0 0 6.76783 17.50573l14.44775 9.63184-31.23975-15.61987a18.7386 18.7386 0 0 0 -25.14038 8.38v.00012a18.73859 18.73859 0 0 0 6.82886 24.27027l49.55127 30.96948h96z" fill="#ec9090"/><path d="m212.5713 120h-46.25893a34.7402 34.7402 0 0 1 -15.53628-3.66762l-35.19841-17.59921a8 8 0 0 1 -3.57751-10.7335l.00005-.00012a8 8 0 0 1 10.73292-3.57731l35.19977 17.59988a18.73477 18.73477 0 0 0 8.37844 1.97788h46.26a8 8 0 0 1 8 8 8 8 0 0 1 -8.00005 8z" fill="#ea8383"/><path d="m219.42894 88h-51.4294a7.99972 7.99972 0 0 1 -3.96914-1.05411l-17.05384-9.74551a7.99976 7.99976 0 0 1 -2.97672-10.91445 7.99977 7.99977 0 0 1 10.91486-2.977l13.36478 7.637a7.9998 7.9998 0 0 0 3.969 1.054h47.18046a7.99977 7.99977 0 0 1 7.99977 7.99977v.00046a7.99977 7.99977 0 0 1 -7.99977 7.99984z" fill="#ea8383"/><path d="m416 16-48.44873 29.06921a80.00047 80.00047 0 0 1 -66.458 7.29529l-88.68507-29.56177a22.81477 22.81477 0 0 0 -28.3977 13.1709 22.815 22.815 0 0 0 11.53491 29.14759l51.26221 23.92224-47.13941 41.24682a47.99985 47.99985 0 0 1 -36.38427 11.63806l-117.36915-11.73693a19.93157 19.93157 0 0 0 -21.91479 19.83252v.00012a19.93133 19.93133 0 0 0 17.88062 19.82556l193.2915 19.99585a80.00324 80.00324 0 0 0 40.04077-6.1709l220.78711-95.67456z" fill="#fda5a3"/><path d="m319.68742 104h-5.93937a72.48865 72.48865 0 0 1 -30.44825-6.75488l-19.83933-9.25836a7.9999 7.9999 0 0 0 -9.03982 1.59259 7.99988 7.99988 0 0 0 2.27372 12.90613l19.83982 9.25865a88.59045 88.59045 0 0 0 37.21386 8.25587h6.25195a8.00052 8.00052 0 0 0 7.98509-8.49461 8.208 8.208 0 0 0 -8.29767-7.50539z" fill="#ec9090"/><circle cx="256" cy="296" fill="#f0a5a5" r="16"/><path d="m203.37354 404.71484a128.0618 128.0618 0 0 0 169.3413-169.3413 256.57569 256.57569 0 0 1 -169.3413 169.3413z" fill="#bebebe"/><path d="m224.00024 496h167.99976l-30.57812-71.34839a167.79134 167.79134 0 0 1 -137.42164 71.34839z" fill="#777"/><path d="m249.44043 486.58276a15.98064 15.98064 0 0 0 21.14257-21.14245 32.07164 32.07164 0 0 1 -21.14257 21.14245z" fill="#096"/><path d="m249.44043 310.58276a15.98064 15.98064 0 0 0 21.14257-21.14245 32.07164 32.07164 0 0 1 -21.14257 21.14245z" fill="#010202" opacity=".15"/><path d="m381.71436 472h-71.1587a167.17983 167.17983 0 0 1 -86.55542 24h167.99976z" fill="#2c78a3"/><path d="m302.65674 347.14819a20.052 20.052 0 0 1 -14.22266 12.33948q-8.95605 7.212-18.55469 13.61926a35.98415 35.98415 0 0 0 50.12061-33.10693v-4h-6.11328q-5.4419 5.74566-11.22998 11.14819z" fill="#777"/><path d="m366.35107 352.88086-26.23486-15.74072-8.23242 13.71972 25.48584 15.29151a128.28708 128.28708 0 0 0 8.98144-13.27051z" fill="#cacaca"/><path d="m381.52637 313.13525-35.58594-8.89648-3.88086 15.52246 35.36182 8.84033a127.12113 127.12113 0 0 0 4.10498-15.46631z" fill="#cacaca"/><path d="m346.4834 293.46289.82715 1.81982 36.35058-16.52294a127.96 127.96 0 0 0 -2.27051-16.543l-23.60644 10.7301q-5.18994 10.54013-11.30078 20.51602z" fill="#cacaca"/></g></svg>