<svg height="512" viewBox="0 0 64 64" width="512" xmlns="http://www.w3.org/2000/svg"><g id="Layer_31" data-name="Layer 31"><path d="m48 35h4v6h-4z" fill="#ffd3b6"/><path d="m48 38.91a6 6 0 0 0 1 .09h2a6 6 0 0 0 1-.09v-3.91h-4z" fill="#f9b995"/><path d="m12 35h4v6h-4z" fill="#ffd3b6"/><path d="m7 21h14a0 0 0 0 1 0 0v10a6 6 0 0 1 -6 6h-2a6 6 0 0 1 -6-6v-10a0 0 0 0 1 0 0z" fill="#ffd3b6"/><path d="m12 38.91a6 6 0 0 0 1 .09h2a6 6 0 0 0 1-.09v-3.91h-4z" fill="#f9b995"/><path d="m18 34h-2a6 6 0 0 1 -6-6v-7h-3v10a6 6 0 0 0 6 6h2a6 6 0 0 0 5.466-3.534 5.974 5.974 0 0 1 -2.466.534z" fill="#f9b995"/><path d="m23 25h1a0 0 0 0 1 0 0v4a0 0 0 0 1 0 0h-1a2 2 0 0 1 -2-2 2 2 0 0 1 2-2z" fill="#ffd3b6" transform="matrix(-1 0 0 -1 45 54)"/><path d="m6 25h1a0 0 0 0 1 0 0v4a0 0 0 0 1 0 0h-1a2 2 0 0 1 -2-2 2 2 0 0 1 2-2z" fill="#f9b995"/><path d="m11 41h6a10 10 0 0 1 10 10v4a0 0 0 0 1 0 0h-26a0 0 0 0 1 0 0v-4a10 10 0 0 1 10-10z" fill="#ff938d"/><path d="m8 52a4 4 0 0 1 -4-4 9.942 9.942 0 0 1 1.6-5.4 9.983 9.983 0 0 0 -4.6 8.4v4h26v-3z" fill="#f27875"/><path d="m23 24.309v.691h-2.343a4 4 0 0 1 -2.829-1.172l-.414-.414a2 2 0 0 0 -2.828 0l-.414.414a4 4 0 0 1 -2.829 1.172h-6.343v-1a9 9 0 0 1 9.6-8.98 9.2 9.2 0 0 1 8.4 9.289z" fill="#7a838b"/><path d="m15.515 15.129a8.86 8.86 0 0 0 -.915-.109 9 9 0 0 0 -9.6 8.98v1h3v-1a9 9 0 0 1 7.515-8.871z" fill="#5d6972"/><path d="m43 21h14a0 0 0 0 1 0 0v10a6 6 0 0 1 -6 6h-2a6 6 0 0 1 -6-6v-10a0 0 0 0 1 0 0z" fill="#ffd3b6"/><path d="m54 34h-2a6 6 0 0 1 -6-6v-7h-3v10a6 6 0 0 0 6 6h2a6 6 0 0 0 5.466-3.534 5.974 5.974 0 0 1 -2.466.534z" fill="#f9b995"/><path d="m59 25h1a0 0 0 0 1 0 0v4a0 0 0 0 1 0 0h-1a2 2 0 0 1 -2-2 2 2 0 0 1 2-2z" fill="#ffd3b6" transform="matrix(-1 0 0 -1 117 54)"/><path d="m42 25h1a0 0 0 0 1 0 0v4a0 0 0 0 1 0 0h-1a2 2 0 0 1 -2-2 2 2 0 0 1 2-2z" fill="#f9b995"/><path d="m47 41h6a10 10 0 0 1 10 10v4a0 0 0 0 1 0 0h-26a0 0 0 0 1 0 0v-4a10 10 0 0 1 10-10z" fill="#98deea"/><path d="m44 52a4 4 0 0 1 -4-4 9.942 9.942 0 0 1 1.6-5.4 9.983 9.983 0 0 0 -4.6 8.4v4h26v-3z" fill="#82d0d8"/><path d="m59 24.309v.691h-2.343a4 4 0 0 1 -2.829-1.172l-.414-.414a2 2 0 0 0 -2.828 0l-.414.414a4 4 0 0 1 -2.829 1.172h-6.343v-1a9 9 0 0 1 9.6-8.98 9.2 9.2 0 0 1 8.4 9.289z" fill="#7a838b"/><path d="m51.515 15.129a8.86 8.86 0 0 0 -.915-.109 9 9 0 0 0 -9.6 8.98v1h3v-1a9 9 0 0 1 7.515-8.871z" fill="#5d6972"/><path d="m41 13h-2a.915.915 0 0 0 -.173.035 2.868 2.868 0 0 0 -.144-.353.91.91 0 0 0 .145-.1l2.879-2.879a1 1 0 0 0 -1.414-1.414l-2.879 2.879a.91.91 0 0 0 -.1.145 2.868 2.868 0 0 0 -.353-.144.915.915 0 0 0 .039-.169v-2a1 1 0 0 0 -2 0v2a.915.915 0 0 0 .035.173 2.868 2.868 0 0 0 -.353.144.91.91 0 0 0 -.1-.145l-1.875-1.879a1 1 0 0 0 -1.414 1.414l1.879 1.879a.91.91 0 0 0 .145.1 2.868 2.868 0 0 0 -.144.353.915.915 0 0 0 -.173-.039h-2a1 1 0 0 0 0 2h2a.915.915 0 0 0 .173-.035 2.868 2.868 0 0 0 .144.353.91.91 0 0 0 -.145.1l-1.879 1.879a1 1 0 1 0 1.414 1.414l1.879-1.879a.91.91 0 0 0 .1-.145 2.868 2.868 0 0 0 .353.144.915.915 0 0 0 -.039.169v2a1 1 0 0 0 2 0v-2a.915.915 0 0 0 -.035-.173 2.868 2.868 0 0 0 .353-.144.91.91 0 0 0 .1.145l1.879 1.879a1 1 0 0 0 1.414-1.414l-1.879-1.879a.91.91 0 0 0 -.145-.1 2.868 2.868 0 0 0 .144-.353.915.915 0 0 0 .169.039h2a1 1 0 0 0 0-2z" fill="#f2b8d4"/><path d="m47 27a1 1 0 0 0 -1 1v1a1 1 0 0 0 2 0v-1a1 1 0 0 0 -1-1z" fill="#7a838b"/><path d="m53 30a1 1 0 0 0 1-1v-1a1 1 0 0 0 -2 0v1a1 1 0 0 0 1 1z" fill="#7a838b"/><path d="m34 34h-2.184a2.746 2.746 0 0 0 -.117-.285l2.008-2.008a1 1 0 0 0 -1.414-1.414l-2.008 2.007a2.746 2.746 0 0 0 -.285-.116v-1.184a1 1 0 0 0 -2 0v1.184a2.746 2.746 0 0 0 -.285.117l-1.008-1.008a1 1 0 0 0 -1.414 1.414l1.007 1.008a2.746 2.746 0 0 0 -.117.285h-2.183a1 1 0 0 0 0 2h2.184a2.746 2.746 0 0 0 .117.285l-1.008 1.008a1 1 0 1 0 1.414 1.414l1.008-1.007a2.746 2.746 0 0 0 .285.117v1.183a1 1 0 0 0 2 0v-1.184a2.746 2.746 0 0 0 .285-.117l1.008 1.008a1 1 0 0 0 1.414-1.414l-1.007-1.008a2.746 2.746 0 0 0 .116-.285h2.184a1 1 0 0 0 0-2z" fill="#f2b8d4"/><path d="m11 27h-1a1 1 0 0 0 0 2h1a1 1 0 0 0 0-2z" fill="#7a838b"/><path d="m17 29h1a1 1 0 0 0 0-2h-1a1 1 0 0 0 0 2z" fill="#7a838b"/><path d="m13.707 34.707a.414.414 0 0 1 .586 0 1 1 0 0 0 1.414-1.414 2.472 2.472 0 0 0 -3.414 0 1 1 0 0 0 1.414 1.414z" fill="#ff938d"/><g fill="#f2b8d4"><circle cx="30" cy="23" r="1"/><circle cx="36" cy="27" r="1"/><circle cx="39" cy="35" r="1"/><path d="m19 47h-2.187a2.746 2.746 0 0 0 -.117-.285l2.004-2.008a1 1 0 0 0 -1.414-1.414l-2.004 2.007a2.746 2.746 0 0 0 -.282-.116v-1.184a1 1 0 0 0 -2 0v1.184a2.746 2.746 0 0 0 -.285.117l-1.015-1.008a1 1 0 0 0 -1.414 1.414l1.014 1.008a2.746 2.746 0 0 0 -.117.285h-2.183a1 1 0 0 0 0 2h2.184a2.746 2.746 0 0 0 .117.285l-1.011 1.008a1 1 0 1 0 1.41 1.414l1.012-1.007a2.746 2.746 0 0 0 .285.117v1.183a1 1 0 0 0 2 0v-1.184a2.746 2.746 0 0 0 .285-.117l1.008 1.008a1 1 0 0 0 1.41-1.414l-1-1.008a2.746 2.746 0 0 0 .113-.285h2.187a1 1 0 0 0 0-2z"/></g><path d="m58.286 46a.992.992 0 0 1 -.661-.25 7.019 7.019 0 0 0 -2-1.239 1 1 0 0 1 .752-1.854 8.972 8.972 0 0 1 2.571 1.593 1 1 0 0 1 -.662 1.75z" fill="#fff"/></g></svg>