<svg clip-rule="evenodd" fill-rule="evenodd" height="512" image-rendering="optimizeQuality" shape-rendering="geometricPrecision" text-rendering="geometricPrecision" viewBox="0 0 43.3492 43.3492" width="512" xmlns="http://www.w3.org/2000/svg"><g id="Layer_x0020_1"><g id="_211225384"><path id="_211219816" d="m42.8521 6.3952c.751 14.5501-6.3083 26.8681-21.1775 36.954-14.8693-10.0859-21.9285-22.4039-21.1776-36.954 9.6253.8793 16.7793-1.252 21.1778-6.3952 4.3984 5.1432 11.5521 7.2745 21.1773 6.3952zm-3.6011 3.7984c-6.32.055-12.6623-1.2588-17.5762-5.1879-4.914 3.9292-11.2566 5.2429-17.5767 5.1879.122 2.4747.51 4.9268 1.1958 7.3264 2.5784 9.022 8.962 15.9937 16.3807 21.4128 7.4187-5.4191 13.8024-12.3909 16.3807-21.4128.6858-2.3996 1.0738-4.8517 1.1957-7.3264z"/><path id="_211225456" d="m14.0086 21.939-2.5572 2.8479 7.1657 6.1758 15.5696-16.9078-2.8489-2.558-13.0228 14.0584z"/></g></g></svg>