<svg id="Medical_Flat" height="512" viewBox="0 0 128 128" width="512" xmlns="http://www.w3.org/2000/svg" data-name="Medical Flat"><path d="m56.913 64.637a3.811 3.811 0 0 1 -1.495 2.605 4.351 4.351 0 0 0 -1.409 2.573 1.948 1.948 0 0 0 -.009.555c.065.6.118 1.239.129 1.9.064 1.965-.214 4.036-1.73 5.221-3.021 2.37-9.95 0-11.85 1.794a15.175 15.175 0 0 0 -3.054 4.985 42.776 42.776 0 0 0 -8.305-5.188c.128-.192.625-10.6 2.02-16.832 2.72-12.15 15.082-14.458 19.767-15.484h.011c2.914 6.149 1.185 9.608 2.178 12.6s3.651 3.008 3.747 5.271z" fill="#ff977b"/><path d="m104.45 81.64s-8.62 4.36-12.16 3.83c1.76-3.67-.59-8.62-2.01-9.3-2.53-1.22-6.16.73-8.88-.82-2.06-1.21-2.38-4.04-2.41-6.42v-1a1.89 1.89 0 0 0 -.08-.53 2.346 2.346 0 0 0 -.19-.43 8.088 8.088 0 0 0 -2.15-2.06c-.74-.54-1.57-1.11-1.58-2.21 0-1.6 1.87-1.86 3.07-5.01.77-2.01.01-2.39-.37-5.02v-.01a20.312 20.312 0 0 1 .5-5.1c9.53.95 16.19 3.5 21.5 18.94l2.85 10.92a42.882 42.882 0 0 0 1.91 4.22z" fill="#ff977b"/><path d="m117.841 51.89c2.637 4.868 7.451 3.929 7.409 11.1-.032 5.573-10.057 12.961-19.142 13.74-1.175.1-2.37.171-3.566.192-7.633.171-14.85-1.548-13.324-9.245 1.762-8.893-1.494-14-11.028-14.947-.171-.021-.341-.042-.5-.074-5.316-.929-5.113-7.826-3.832-9.908 2.242-3.64 8.4-7.782 14.5-8.647 23.525-3.328 26.824 12.889 29.483 17.789z" fill="#3c3854"/><path d="m64.738 92.939s1.634-4.292 2.958-5.253c2.466-1.772 5.925-.16 7.782 4.677s-.811 8.4-4.323 10.91c-.993.716-6.054 3.585-7.826 5.485l-.534-.25a17.8 17.8 0 0 1 -5.137-5.188c1.227-1.4 2.767-2.886 2.735-3.943-.064-1.655-.1-5.669-.138-8.637-.011-1.078 0-2.2 1.067-2.466 1.836-.449 3.139 2.156 3.416 4.665z" fill="#ff977b"/><path d="m64.173 108.1c-2.627-1.591-6.2-6.278-6.235-6.331l-.011-.011c-1.041.659-9.629 7.271-9.629 7.271l5.594 10.708s8.167-6.374 11.765-10.89a9.637 9.637 0 0 1 -1.484-.747z" fill="#78c5ef"/><path d="m55.82 120.6a1.988 1.988 0 0 1 -2 2.17l-5.46-.01h-2.05l-16.81-.05h-2.01l-10.26-.01a2 2 0 0 1 -1.99-1.96c-.04-2.38-.06-6.44.18-9.67a65.245 65.245 0 0 1 8.06-24.87 29.292 29.292 0 0 1 5.71-7.12 42.734 42.734 0 0 1 8.3 5.19 33.717 33.717 0 0 1 3.89 3.84 60.823 60.823 0 0 1 7.91 12.77c3.33 6.83 6.05 14.48 6.53 19.72z" fill="#cae7ef"/><path d="m28.173 78.174c-1.219-1.112-2.563-2.39-4.047-3.682a1.391 1.391 0 0 1 -.24-1.84 1.417 1.417 0 0 1 .94-.581c3.185-.543 6.385-2.635 10.183-6.986a2.777 2.777 0 0 0 .727.913 4.414 4.414 0 0 0 1.055.672.966.966 0 0 1 .545.886c-.176 5.532-5.1 8.594-7.319 10.622a1.366 1.366 0 0 1 -1.844-.004z" fill="#322f4c"/><path d="m57.959 37.691c.086.577 5.979-3.843 5.979-3.843h5.583a12.482 12.482 0 0 0 12.342-12.448c.01-.556.01-1.111 0-1.677a12.479 12.479 0 0 0 -12.342-12.437c-3.074-.011-6.138-.011-9.213 0a12.463 12.463 0 0 0 -12.331 12.437v1.677a12.487 12.487 0 0 0 10.89 12.352s-1.047 3.064-.908 3.939z" fill="#42a4f6"/><path d="m23.476 86.2a29.327 29.327 0 0 1 5.712-7.121 42.807 42.807 0 0 1 8.305 5.188 34.025 34.025 0 0 1 3.887 3.844 60.871 60.871 0 0 1 7.91 12.768s-13.076-13.466-24.626-14.568c-.296-.028-1.188-.111-1.188-.111z" fill="#78c5ef"/><path d="m51.5 41.054a11.532 11.532 0 0 1 -.523 5.712c-1.644 5.028-5.989 9.768-9.6 12.352a4.529 4.529 0 0 0 -6.886 3.875 4.447 4.447 0 0 0 .928 2.733c-.427.545-.843 1.046-1.249 1.516-4.035 4.623-7.612 6.064-11 6.438a45.98 45.98 0 0 1 -6.534.01c-4.185-.1-12.224-3.48-13.569-13.846-.811-6.2 3.908-13.74 12.9-17.274 8.21-3.224 13.537-10.025 22.878-10.025 7.531.011 11.887 4.196 12.655 8.509z" fill="#3c3854"/><g fill="#fff"><path d="m71.069 19.659a.924.924 0 0 1 0 1.847.924.924 0 1 1 0-1.847z"/><path d="m65.71 20.449a1.308 1.308 0 1 1 -1.313 1.3 1.31 1.31 0 0 1 1.313-1.3z"/><circle cx="59.401" cy="20.951" r="1.932"/></g><path d="m107.066 122.7h-20.654a2.006 2.006 0 0 1 -1.987-1.79 12.521 12.521 0 0 0 -1.345-4.61c-1.121-1.3-2.99-4.057-3.278-5.53-.63-3.288-.128-5.178 1.281-8.21 2.039-4.377 9.2-12.886 11.21-17.092 3.427.523 11.658-3.566 12.139-3.811a.031.031 0 0 1 .021-.011c10 12.966 6.236 32.271 4.56 39.519a1.993 1.993 0 0 1 -1.947 1.535z" fill="#1b89e5"/><path d="m90.03 122.7c2.288-10.373 4.288-25.851 10.584-27.823a4.059 4.059 0 0 1 5.155 3.313l.008.062c1.569 7.558-3.673 21.917-4.014 24.448z" fill="#ff977b"/><path d="m54.137 72.27h-.01-.006a2.292 2.292 0 0 1 -3.069-2.062v-.726a18.12 18.12 0 0 0 2.957.331z" fill="#fff"/><rect fill="#332c44" height="3.937" rx="1.174" width="2.347" x="48.991" y="56.799"/><rect fill="#332c44" height="3.362" rx="1.178" width="2.357" x="79.608" y="55.817"/><path d="m37.54 98.67a1.031 1.031 0 0 1 -1.13.87 4.269 4.269 0 0 0 -3.81 1.56c-3.49 3.78-4.86 13.17-3.12 21.39a.858.858 0 0 1 .02.22h-2.01c-1.84-8.88-.28-18.72 3.64-22.96a6.252 6.252 0 0 1 5.54-2.2 1.008 1.008 0 0 1 .87 1.12z" fill="#78c5ef"/><path d="m48.36 122.76h-2.05c-.13-.52-.3-1.3-.52-2.32-1.02-4.66-3.13-14.37-6.43-18.87a1 1 0 1 1 1.61-1.18c3.55 4.84 5.65 14.46 6.77 19.62.25 1.16.45 2.06.58 2.48a.842.842 0 0 1 .04.27z" fill="#78c5ef"/><path d="m39.575 64.474a1 1 0 0 1 -.94-.66s-.19-.461-.511-.461a1 1 0 0 1 0-2 2.641 2.641 0 0 1 2.392 1.78 1 1 0 0 1 -.941 1.341z" fill="#ed4850"/><path d="m82.01 68.46a7.009 7.009 0 0 1 -2.59.48c-.19 0-.33-.01-.43-.01v-1a1.89 1.89 0 0 0 -.08-.53 2.346 2.346 0 0 0 -.19-.43.968.968 0 0 1 .38-.04 5.044 5.044 0 0 0 2.15-.32.985.985 0 0 1 1.3.54 1 1 0 0 1 -.54 1.31z" fill="#ed4850"/><path d="m51.531 65.888c-.68 0-1.8-.331-2.772-2.151a13.792 13.792 0 0 1 -.889-9.422c.682-2.172 1.867-2.6 2.513-2.659 2.352-.223 3.909 3.24 4.242 6.775a12.533 12.533 0 0 1 -.388 4.789c-.682 2.172-1.867 2.6-2.512 2.659-.06.006-.125.009-.194.009zm-.943-12.242h-.018c-.132.013-.5.339-.793 1.268a11.861 11.861 0 0 0 .744 7.876c.461.858.891 1.114 1.016 1.1s.5-.339.793-1.268a10.7 10.7 0 0 0 .3-4c-.306-3.288-1.568-4.976-2.042-4.976z" fill="#fff"/><path d="m67.195 95.946a1 1 0 0 1 -.819-.424 5.282 5.282 0 0 0 -1.97-1.64 1 1 0 1 1 .664-1.882 7.1 7.1 0 0 1 2.941 2.374 1 1 0 0 1 -.816 1.576z" fill="#ed4850"/></svg>