<svg id="Capa_1" enable-background="new 0 0 512 512" height="512" viewBox="0 0 512 512" width="512" xmlns="http://www.w3.org/2000/svg"><g><path d="m377.22 120.638h-242.44c-11.158 0-20.203 9.045-20.203 20.203v343.455c0 11.158 9.045 20.203 20.203 20.203h242.44c11.158 0 20.203-9.045 20.203-20.203v-343.455c0-11.157-9.046-20.203-20.203-20.203zm-72.732 48.488c0 8.926-7.236 16.163-16.163 16.163h-64.65c-8.926 0-16.163-7.236-16.163-16.163 0-8.926 7.236-16.163 16.163-16.163h64.65c8.927 0 16.163 7.237 16.163 16.163z" fill="#a2e62e"/><path d="m377.22 120.638h-32.325c11.158 0 20.203 9.045 20.203 20.203v343.455c0 11.158-9.045 20.203-20.203 20.203h32.325c11.158 0 20.203-9.045 20.203-20.203v-343.455c0-11.157-9.046-20.203-20.203-20.203z" fill="#97d729"/><path d="m167.106 472.175h177.789c11.158 0 20.203-9.045 20.203-20.203v-214.155c0-11.158-9.045-20.203-20.203-20.203h-177.789c-11.158 0-20.203 9.045-20.203 20.203v214.154c-.001 11.158 9.045 20.204 20.203 20.204z" fill="#dff6fd"/><path d="m344.894 217.614h-32.325c11.158 0 20.203 9.045 20.203 20.203v214.154c0 11.158-9.045 20.203-20.203 20.203h32.325c11.158 0 20.203-9.045 20.203-20.203v-214.154c.001-11.158-9.045-20.203-20.203-20.203z" fill="#c8effe"/><path d="m185.289 439.85h141.423c4.463 0 8.081-3.618 8.081-8.081v-16.163c0-4.463-3.618-8.081-8.081-8.081h-141.423c-4.463 0-8.081 3.618-8.081 8.081v16.163c-.001 4.462 3.617 8.081 8.081 8.081z" fill="#3c87d0"/><path d="m232.127 7.5h48.488v145.463h-48.488z" fill="#ffe177"/><circle cx="256" cy="88.313" fill="#3c87d0" r="32.325"/><g><path d="m311.559 365.097v-34.345c0-14.505-11.759-26.264-26.264-26.264h-58.589c-14.505 0-26.264 11.759-26.264 26.264v34.345c0 5.579 4.523 10.102 10.102 10.102h90.915c5.577-.001 10.1-4.523 10.1-10.102z" fill="#fd8087"/><path d="m285.295 304.488h-58.589c-10.402 0-19.391 6.048-23.644 14.819 11.704 16.677 31.063 27.608 52.939 27.608s41.235-10.932 52.939-27.608c-4.255-8.771-13.243-14.819-23.645-14.819z" fill="#fe646f"/><circle cx="256" cy="282.264" fill="#fed2a4" r="32.325"/><circle cx="256" cy="282.264" fill="#fed2a4" r="32.325"/><path d="m265.527 251.368c4.399 5.522 7.035 12.512 7.035 20.121 0 17.853-14.472 32.325-32.325 32.325-3.316 0-6.515-.501-9.527-1.429 5.922 7.434 15.047 12.204 25.29 12.204 17.853 0 32.325-14.473 32.325-32.325 0-14.536-9.596-26.83-22.798-30.896z" fill="#ffbd86"/></g><g><path d="m190.01 210.11h-22.9c-15.279 0-27.71 12.431-27.71 27.71v214.15c0 15.274 12.431 27.7 27.71 27.7h177.78c15.279 0 27.71-12.426 27.71-27.7v-214.15c0-15.279-12.431-27.71-27.71-27.71h-119.88c-4.142 0-7.5 3.357-7.5 7.5s3.358 7.5 7.5 7.5h119.88c7.009 0 12.71 5.702 12.71 12.71v214.15c0 7.003-5.701 12.7-12.71 12.7h-177.78c-7.008 0-12.71-5.697-12.71-12.7v-214.15c0-7.008 5.702-12.71 12.71-12.71h22.9c4.142 0 7.5-3.357 7.5-7.5s-3.358-7.5-7.5-7.5z"/><path d="m169.708 415.605v16.163c0 8.592 6.99 15.581 15.581 15.581h141.422c8.592 0 15.582-6.989 15.582-15.581v-16.163c0-8.592-6.99-15.581-15.582-15.581h-141.422c-8.592 0-15.581 6.99-15.581 15.581zm157.585 0v16.163c0 .32-.261.581-.582.581h-141.422c-.32 0-.581-.261-.581-.581v-16.163c0-.32.261-.581.581-.581h141.422c.321 0 .582.261.582.581z"/><path d="m377.22 113.14h-89.103v-1.314c4.841-6.594 7.708-14.723 7.708-23.512s-2.867-16.918-7.708-23.512v-57.302c0-4.143-3.357-7.5-7.5-7.5h-48.487c-4.142 0-7.5 3.357-7.5 7.5v56.323c-5.29 6.761-8.455 15.26-8.455 24.491s3.165 17.73 8.455 24.491v.335h-89.85c-15.273 0-27.7 12.426-27.7 27.7v227.66c0 4.143 3.358 7.5 7.5 7.5s7.5-3.357 7.5-7.5v-227.66c0-7.003 5.697-12.7 12.7-12.7h89.85v17.324h-.955c-13.047 0-23.663 10.615-23.663 23.662 0 13.048 10.615 23.663 23.663 23.663h64.65c13.048 0 23.663-10.615 23.663-23.663 0-13.047-10.615-23.662-23.663-23.662h-.208v-17.324h89.103c7.003 0 12.7 5.697 12.7 12.7v33.54c0 4.143 3.357 7.5 7.5 7.5s7.5-3.357 7.5-7.5v-33.54c0-15.275-12.426-27.7-27.7-27.7zm-146.045-24.827c0-13.688 11.137-24.825 24.825-24.825s24.825 11.137 24.825 24.825-11.137 24.826-24.825 24.826-24.825-11.137-24.825-24.826zm41.942-73.313v37.361c-5.189-2.48-10.993-3.873-17.117-3.873-5.834 0-11.373 1.271-16.37 3.535v-37.023zm23.871 154.126c0 4.777-3.886 8.663-8.663 8.663h-64.65c-4.776 0-8.663-3.886-8.663-8.663 0-4.776 3.886-8.662 8.663-8.662h64.65c4.778 0 8.663 3.886 8.663 8.662zm-57.358-23.662v-20.86c4.998 2.263 10.537 3.535 16.37 3.535 6.124 0 11.929-1.392 17.117-3.873v21.198z"/><path d="m397.42 201.88c-4.143 0-7.5 3.357-7.5 7.5v274.92c0 7.003-5.697 12.7-12.7 12.7h-242.44c-7.002 0-12.7-5.697-12.7-12.7v-80.8c0-4.143-3.358-7.5-7.5-7.5s-7.5 3.357-7.5 7.5v80.8c0 15.273 12.426 27.7 27.7 27.7h242.44c15.274 0 27.7-12.427 27.7-27.7v-274.92c0-4.143-3.358-7.5-7.5-7.5z"/><path d="m192.941 330.754v34.345c0 9.705 7.896 17.602 17.602 17.602h90.915c9.705 0 17.602-7.896 17.602-17.602v-34.345c0-16.086-11.311-29.572-26.394-32.945 2.034-4.779 3.161-10.032 3.161-15.545 0-21.96-17.865-39.825-39.825-39.825-21.959 0-39.825 17.865-39.825 39.825 0 5.512 1.127 10.766 3.161 15.544-15.086 3.374-26.397 16.859-26.397 32.946zm63.059-73.315c13.688 0 24.825 11.137 24.825 24.825s-11.137 24.826-24.825 24.826-24.825-11.137-24.825-24.825 11.137-24.826 24.825-24.826zm-48.059 73.315c0-10.347 8.417-18.765 18.764-18.765h2.829c7.041 6.276 16.314 10.101 26.466 10.101 10.153 0 19.425-3.824 26.467-10.101h2.828c10.347 0 18.764 8.418 18.764 18.765v34.345c0 1.435-1.167 2.602-2.602 2.602h-90.915c-1.435 0-2.602-1.167-2.602-2.602v-34.345z"/><circle cx="256" cy="88.313" r="7.5"/></g></g></svg>