<svg id="Layer_1" enable-background="new 0 0 66 66" height="512" viewBox="0 0 66 66" width="512" xmlns="http://www.w3.org/2000/svg"><g><g><g><g><g><g><g><path d="m64.45 6.48v40.95c0 2.33-1.89 4.22-4.21 4.22h-54.48c-2.32 0-4.21-1.89-4.21-4.22v-40.95c0-2.33 1.89-4.22 4.21-4.22h54.49c2.31 0 4.2 1.89 4.2 4.22z" fill="#9ccffe"/></g></g></g></g><g><g><g><g><path d="m64.45 42.68v4.74c0 2.33-1.89 4.22-4.21 4.22h-54.48c-2.32 0-4.21-1.89-4.21-4.22v-4.74z" fill="#1c6be4"/></g></g></g></g><g><g><g><g><path d="m20.97 58.74c3.79-1.76 4.39-7.1 4.39-7.1h15.56s.6 5.33 4.39 7.1z" fill="#9ccffe"/></g></g></g></g><g><g><g><g><path d="m50.03 61.63v.74c0 .76-.62 1.38-1.38 1.38h-31.04c-.76 0-1.38-.62-1.38-1.38v-.74c0-1.6 1.29-2.89 2.89-2.89h28.01c1.61 0 2.9 1.29 2.9 2.89z" fill="#1c6be4"/></g></g></g></g><g><g><g><g><path d="m35.84 47.84h-5.68c-.4 0-.73-.33-.73-.73 0-.41.33-.73.73-.73h5.68c.4 0 .73.33.73.73s-.32.73-.73.73z" fill="#9ccffe"/></g></g></g></g></g><g><g><g><g><g><circle cx="19.71" cy="22.73" fill="#1c6be4" r="12.95"/></g></g></g></g><g><g><g><g><path d="m26.53 31.42v2.32c-1.97 1.23-4.32 1.95-6.83 1.95-2.49 0-4.84-.72-6.81-1.95v-2.32c0-.92.59-1.71 1.46-1.93l3.3-.88v.58c0 .57.23 1.09.6 1.46s.89.6 1.46.6c1.14.01 2.06-.92 2.06-2.06v-.59l3.28.88c.88.23 1.48 1.02 1.48 1.94z" fill="#ff551a"/></g></g></g></g><g><g><g><g><g><path d="m21.77 27.03v2.15c0 1.14-.93 2.07-2.06 2.06-.57 0-1.09-.23-1.46-.6s-.6-.89-.6-1.46v-2.14c.59.38 1.3.6 2.06.61.75 0 1.46-.23 2.06-.62z" fill="#fdb47f"/></g></g></g></g><g><g><g><g><path d="m23.51 20.99v2.84c0 1.34-.69 2.52-1.74 3.2-.6.39-1.31.62-2.06.62-.76-.01-1.47-.23-2.06-.61-.23-.14-.44-.32-.64-.51-.69-.69-1.11-1.64-1.11-2.7v-4.48c1.04 1.04 2.46 1.63 3.93 1.63h3.68z" fill="#fdb47f"/></g></g></g></g></g></g><g><g><g><g><g><path d="m58.91 11.72h-12.88c-.4 0-.73-.33-.73-.73 0-.41.33-.73.73-.73h12.88c.4 0 .73.33.73.73s-.33.73-.73.73z" fill="#1c6be4"/></g></g></g></g><g><g><g><g><path d="m58.91 17.63h-20.13c-.4 0-.73-.33-.73-.73s.33-.73.73-.73h20.13c.4 0 .73.33.73.73s-.33.73-.73.73z" fill="#1c6be4"/></g></g></g></g><g><g><g><g><path d="m58.91 23.54h-20.13c-.4 0-.73-.33-.73-.73s.33-.73.73-.73h20.13c.4 0 .73.33.73.73s-.33.73-.73.73z" fill="#1c6be4"/></g></g></g></g><g><g><g><g><path d="m58.91 29.45h-20.13c-.4 0-.73-.33-.73-.73s.33-.73.73-.73h20.13c.4 0 .73.33.73.73s-.33.73-.73.73z" fill="#1c6be4"/></g></g></g></g><g><g><g><g><path d="m58.91 35.37h-5.62c-.4 0-.73-.33-.73-.73 0-.41.33-.73.73-.73h5.62c.4 0 .73.33.73.73s-.33.73-.73.73z" fill="#1c6be4"/></g></g></g></g><g><g><g><g><path d="m49.78 35.37h-11c-.4 0-.73-.33-.73-.73 0-.41.33-.73.73-.73h11c.4 0 .73.33.73.73s-.33.73-.73.73z" fill="#1c6be4"/></g></g></g></g></g></g><g><g><g><g><path d="m25.1 19.16c.04 1.65-1.4 3.01-3.06 3.01h-4.43c-1.99 0-3.3-1.31-3.3-2.94v-2.18c0-.42.34-.76.76-.76h7.09c.81 0 1.55.33 2.08.86.52.52.84 1.23.86 2.01z" fill="#270537"/></g></g></g></g></g></svg>