<svg height="512" viewBox="0 0 64 64" width="512" xmlns="http://www.w3.org/2000/svg"><g id="Flat"><g id="Flat-2" data-name="Flat"><g><g><path d="m58 57h-52v-39l26-13 26 13z" fill="#e9f1f2"/><path d="m14 26.4v6.6a18 18 0 0 0 18 18h26v6h-52v-39l26-13 26 13v6.45l-26-13.45-12.59 6.51a10.018 10.018 0 0 0 -5.41 8.89z" fill="#d0d8da"/><path d="m30 14h4v4h-4z" fill="#84d2f4"/><path d="m47 5h6v10h-6z" fill="#fcbc04"/><path d="m49 6v-1h-2v10h6v-5a4 4 0 0 1 -4-4z" fill="#e59730"/><path d="m3 57h58v4h-58z" fill="#fcbc04"/><path d="m7 57h-4v4h58v-2h-52a2 2 0 0 1 -2-2z" fill="#e59730"/><path d="m61 23-29-15v-5l29 15z" fill="#fcbc04"/><path d="m32 8-29 15v-5l29-15z" fill="#fcbc04"/><path d="m32 8 29 15v-3l-29-15z" fill="#e59730"/><path d="m3 23 29-15v-3l-29 15z" fill="#e59730"/><path d="m34 18h-4v-4z" fill="#57b7eb"/></g><path d="m43 32h8v6h-8z" fill="#f89c8d"/><path d="m53 32h-12l6-6z" fill="#f9e109"/><path d="m53 32h-12l6-6 .01.01a2.992 2.992 0 0 0 2.23 4.99h2.76z" fill="#fcbc04"/><path d="m51 33h-6a3 3 0 0 0 3 3h3v2h-8v-6h8z" fill="#f8664f"/><g><g fill="#57b7eb"><path d="m16 31a3 3 0 0 0 -3-3 1 1 0 1 1 1-1 1 1 0 0 0 2 0 3 3 0 1 0 -3 3 1 1 0 1 1 -1 1 1 1 0 0 0 -2 0 3 3 0 0 0 6 0z"/><path d="m18 26h2v7a1 1 0 0 0 2 0v-7h2a1 1 0 0 0 0-2h-6a1 1 0 0 0 0 2z"/><path d="m25.649 33.937a1 1 0 0 0 1.288-.586l.506-1.351h3.114l.506 1.351a1 1 0 0 0 .937.649 1.029 1.029 0 0 0 .351-.063 1 1 0 0 0 .586-1.288l-3-8a1 1 0 0 0 -1.874 0l-3 8a1 1 0 0 0 .586 1.288zm3.351-6.089.807 2.152h-1.614z"/><path d="m39.2 24.4-2.2 2.933-2.2-2.933a1 1 0 0 0 -1.6 1.2l2.8 3.733v2.667a1 1 0 0 0 2 0v-2.667l2.8-3.733a1 1 0 0 0 -1.6-1.2z"/><path d="m18 41a1 1 0 0 0 -1 1v3h-4v-3a1 1 0 0 0 -2 0v8a1 1 0 0 0 2 0v-3h4v3a1 1 0 0 0 2 0v-8a1 1 0 0 0 -1-1z"/><path d="m26 41h-2a3 3 0 0 0 -3 3v4a3 3 0 0 0 3 3h2a3 3 0 0 0 3-3v-4a3 3 0 0 0 -3-3zm1 7a1 1 0 0 1 -1 1h-2a1 1 0 0 1 -1-1v-4a1 1 0 0 1 1-1h2a1 1 0 0 1 1 1z"/><path d="m38.267 41.036a1 1 0 0 0 -1.124.449l-2.143 3.571-2.143-3.571a1 1 0 0 0 -1.857.515v8a1 1 0 0 0 2 0v-4.39l1.143 1.905a1.039 1.039 0 0 0 1.714 0l1.143-1.905v4.39a1 1 0 0 0 2 0v-8a1 1 0 0 0 -.733-.964z"/><path d="m48 49h-5v-2h3a1 1 0 0 0 0-2h-3v-2h5a1 1 0 0 0 0-2h-6a1 1 0 0 0 -1 1v8a1 1 0 0 0 1 1h6a1 1 0 0 0 0-2z"/></g><path d="m38 37h-26a1 1 0 0 0 0 2h26a1 1 0 0 0 0-2z" fill="#f8664f"/><path d="m13 34a3.009 3.009 0 0 1 -3-3 1 1 0 0 1 2 0 1 1 0 0 0 2 0v2c0 .27.01.54.02.81a2.681 2.681 0 0 1 -1.02.19z" fill="#4891d3"/><path d="m12 37h2.46a15.229 15.229 0 0 0 .57 2h-3.03a1 1 0 0 1 0-2z" fill="#cc5144"/><path d="m17 42.94a16.488 16.488 0 0 0 2 2.5v4.56a1 1 0 0 1 -2 0v-3h-4v3a1 1 0 0 1 -2 0v-8a1 1 0 0 1 2 0v3h4z" fill="#4891d3"/><path d="m27.7 50.48a3.126 3.126 0 0 1 -1.7.52h-2a3.009 3.009 0 0 1 -3-3v-.76a17.852 17.852 0 0 0 6.7 3.24z" fill="#4891d3"/><path d="m14 28.18v2.82a1 1 0 0 0 -1-1 3 3 0 0 1 0-6 2.952 2.952 0 0 1 1.23.27 10 10 0 0 0 -.23 2.13v.6a1 1 0 1 0 -1 1 2.772 2.772 0 0 1 1 .18z" fill="#4891d3"/></g></g></g></g></svg>