<svg id="Capa_1" enable-background="new 0 0 512 512" height="512" viewBox="0 0 512 512" width="512" xmlns="http://www.w3.org/2000/svg"><g><path d="m171.684 14.21c1.757-.613 7.67 8.174 9.444 7.599 10.093-3.272 20.46-5.934 31.059-7.943 2.404-.456.674-10.258 3.101-10.646 13.258-2.119 26.857-3.22 40.712-3.22s27.454 1.101 40.712 3.219c1.323.211.291 5.336 1.607 5.568 12.664 2.229 25.007 5.388 36.956 9.405.899.302 4.147-4.294 5.041-3.982 99.961 34.854 171.684 129.946 171.684 241.79 0 141.385-114.615 256-256 256s-256-114.615-256-256c0-111.844 71.723-206.936 171.684-241.79z" fill="#3342ae"/><path d="m484.064 274.319c0 108.718-88.133 196.851-196.851 196.851s-196.851-88.133-196.851-196.851 88.133-196.851 196.851-196.851 196.851 88.133 196.851 196.851z" fill="#3d4ec6"/><path d="m215.288 3.22 44.179 110.446c3.129 7.824-2.632 16.334-11.059 16.334h-20.252c-6.134 0-11.649-3.734-13.927-9.429l-42.545-106.361c14.019-4.889 28.594-8.592 43.604-10.99z" fill="#169b62"/><path d="m441 460h-370c-8.284 0-15-6.716-15-15v-240c0-8.284 6.716-15 15-15h370c8.284 0 15 6.716 15 15v240c0 8.284-6.716 15-15 15z" fill="#5766ce"/><path d="m441 460h-236.122c-8.284 0-15-6.716-15-15v-240c0-8.284 6.716-15 15-15h236.122c8.284 0 15 6.716 15 15v240c0 8.284-6.716 15-15 15z" fill="#717ed6"/><path d="m417 440h-322c-8.284 0-15-6.716-15-15v-200c0-8.284 6.716-15 15-15h322c8.284 0 15 6.716 15 15v200c0 8.284-6.716 15-15 15z" fill="#d3d3d8"/><path d="m432 225v200c0 8.284-6.716 15-15 15h-95.032c-78.702-43.671-131.968-127.615-131.968-224 0-2.005.023-4.006.069-6h226.931c8.284 0 15 6.716 15 15z" fill="#ececf1"/><path d="m295.489 355.19c0-2.762 2.239-5 5-5h64.511c2.761 0 5 2.238 5 5 0 2.761-2.239 5-5 5h-64.511c-2.761 0-5-2.238-5-5zm79.511 17h-74.511c-2.761 0-5 2.238-5 5 0 2.761 2.239 5 5 5h74.511c2.761 0 5-2.239 5-5s-2.239-5-5-5z" fill="#b9b9be"/><path d="m380 295.19c0 2.761-2.239 5-5 5h-91.614c-2.761 0-5-2.239-5-5 0-2.761 2.239-5 5-5h91.614c2.761 0 5 2.239 5 5zm-60.386 18h-36.227c-2.761 0-5 2.239-5 5 0 2.761 2.239 5 5 5h36.227c2.761 0 5-2.239 5-5 0-2.761-2.239-5-5-5zm-36.228 37c-2.761 0-5 2.239-5 5s2.239 5 5 5 5-2.239 5-5-2.238-5-5-5zm0 22c-2.761 0-5 2.239-5 5s2.239 5 5 5 5-2.239 5-5-2.238-5-5-5zm-62.072 11.729c-1.944 1.385-4.516 1.447-6.606.293-9.748-5.382-20.955-8.446-32.878-8.446-11.878 0-23.046 3.041-32.769 8.385-2.162 1.188-4.819 1.124-6.826-.311-17.269-12.357-28.525-32.582-28.525-55.436 0-37.971 31.067-68.685 69.169-68.111 36.018.543 65.718 29.581 67.023 65.579.868 23.937-10.62 45.244-28.588 58.047z" fill="#7cd2e3"/><path d="m203.359 379.239c-6.767-2.253-14.006-3.473-21.53-3.473-11.878 0-23.046 3.041-32.769 8.385-2.162 1.188-4.819 1.124-6.826-.311-17.269-12.357-28.524-32.582-28.524-55.436 0-37.971 31.067-68.685 69.169-68.111 11.687.176 22.708 3.353 32.31 8.793-20.662 11.698-34.606 33.879-34.606 59.318.001 20.208 8.8 38.36 22.776 50.835z" fill="#60c8dd"/><path d="m163.14 386.721c0 3.633-3.681 6.146-7.044 4.773-5.043-2.059-9.783-4.705-14.137-7.853v-20.023c0-9.634 7.81-17.443 17.443-17.443h21.181c-9.634 0-17.443 7.81-17.443 17.443z" fill="#fcf2b6"/><path d="m221.701 363.618v20.023c-11.209 8.105-24.982 12.882-39.871 12.882-9.292 0-18.15-1.861-26.22-5.229v-27.675c0-9.634 7.81-17.443 17.444-17.443h31.204c9.633-.001 17.443 7.809 17.443 17.442z" fill="#fff5f5"/><path d="m176.5 396.317v-29.36c0-1.104.896-2 2-2h6c1.104 0 2 .896 2 2v29.407c-1.543.104-3.101.158-4.67.158-1.794.001-3.571-.069-5.33-.205z" fill="#3342ae"/><path d="m184.5 365.66h-6c-1.105 0-2-.895-2-2v-11.66c0-1.105.895-2 2-2h6c1.105 0 2 .895 2 2v11.66c0 1.104-.895 2-2 2z" fill="#232e7a"/><path d="m199.394 346.124-8.91 13.122c-.793 1.168-2.516 1.168-3.309 0l-5.345-7.872-5.345 7.872c-.793 1.168-2.516 1.168-3.309 0l-8.91-13.122c-.902-1.328.05-3.124 1.655-3.124h31.82c1.604 0 2.555 1.795 1.653 3.124z" fill="#fcf2b6"/><path d="m192 289.032v5c0 9.906-8.03 17.936-17.936 17.936h-21.064c-1.105 0-2-.895-2-2v-15.064c0-7.127 5.777-12.904 12.904-12.904h21.064c3.884 0 7.032 3.148 7.032 7.032z" fill="#954c35"/><path d="m179.032 282h21.064c7.127 0 12.904 5.777 12.904 12.904v15.064c0 1.105-.895 2-2 2h-21.064c-9.906 0-17.936-8.03-17.936-17.936v-5c0-3.884 3.148-7.032 7.032-7.032z" fill="#ae583e"/><path d="m215.471 315.026v2.492c0 3.441-2.789 6.23-6.23 6.23-.615 0-1.209-.09-1.77-.256-3.053 8.057-9.796 14.3-18.165 16.667v8.508c0 4.129-3.347 7.476-7.476 7.476s-7.476-3.347-7.476-7.476v-8.508c-8.369-2.367-15.112-8.61-18.165-16.667-.561.166-1.155.256-1.77.256-3.441 0-6.23-2.789-6.23-6.23v-2.492c0-3.441 2.789-6.23 6.23-6.23v-4.984c0-15.139 12.272-27.411 27.411-27.411s27.411 12.272 27.411 27.411v4.984c3.441 0 6.23 2.789 6.23 6.23z" fill="#faa68e"/><path d="m209.241 303.812v9.968c0 12.338-8.152 22.772-19.363 26.21-11.211-3.439-19.362-13.872-19.362-26.21v-9.968c0-12.338 8.151-22.772 19.362-26.21 11.211 3.439 19.363 13.872 19.363 26.21z" fill="#ffbeaa"/><path d="m175.858 312.364c0 1.885-1.528 3.413-3.413 3.413h-3.413c-1.885 0-3.413-1.528-3.413-3.413s1.528-3.413 3.413-3.413h3.413c1.885.001 3.413 1.529 3.413 3.413zm18.769-3.412h-3.413c-1.885 0-3.413 1.528-3.413 3.413s1.528 3.413 3.413 3.413h3.413c1.885 0 3.413-1.528 3.413-3.413s-1.528-3.413-3.413-3.413z" fill="#3342ae"/><path d="m186.949 324.65v.341c0 2.827-2.292 5.119-5.119 5.119s-5.119-2.292-5.119-5.119v-.341c0-.754.611-1.365 1.365-1.365h7.508c.754 0 1.365.611 1.365 1.365z" fill="#fff5f5"/><path d="m189 279.032c0 9.906-8.03 17.936-17.936 17.936h-18.064c-1.105 0-2-.895-2-2 0-12.685 10.283-22.968 22.968-22.968h8c3.884 0 7.032 3.148 7.032 7.032z" fill="#954c35"/><path d="m191.032 272c12.133 0 21.968 9.835 21.968 21.968v1c0 1.105-.895 2-2 2h-9.064c-9.906 0-17.936-8.03-17.936-17.936 0-3.884 3.148-7.032 7.032-7.032z" fill="#ae583e"/><path d="m297 105h-82c-11.028 0-20 8.972-20 20v10c0 11.028 8.972 20 20 20h82c11.028 0 20-8.972 20-20v-10c0-11.028-8.972-20-20-20zm10 30c0 5.514-4.486 10-10 10h-82c-5.514 0-10-4.486-10-10v-10c0-5.514 4.486-10 10-10h82c5.514 0 10 4.486 10 10z" fill="#ff9100"/><path d="m276 180v50c0 5.523-4.477 10-10 10h-20c-5.523 0-10-4.477-10-10v-50c0-5.523 4.477-10 10-10h20c5.523 0 10 4.477 10 10z" fill="#ffa90b"/><path d="m276 150v30c0 11.046-8.954 20-20 20s-20-8.954-20-20v-30c0-5.523 4.477-10 10-10h20c5.523 0 10 4.477 10 10z" fill="#ffc14f"/><path d="m266 220c0 5.523-4.477 10-10 10s-10-4.477-10-10 4.477-10 10-10 10 4.477 10 10z" fill="#dd7d00"/><path d="m289.911 20.221c4.082-10.204 46.384 4.04 41.403 16.493l-33.543 83.856c-2.278 5.695-7.794 9.429-13.927 9.429h-37.844z" fill="#1ed688"/><path d="m275.765 55.587 20.947-52.367c15.01 2.398 29.585 6.102 43.604 10.99l-23.172 57.929c-4.571 11.427-17.539 16.984-28.966 12.414-11.426-4.571-16.984-17.539-12.413-28.966z" fill="#7af4ab"/><path d="m180.584 255.285c-40.73 0-73.867 33.137-73.867 73.868s33.137 73.868 73.867 73.868 73.867-33.137 73.867-73.868-33.137-73.868-73.867-73.868zm0 137.736c-35.217 0-63.867-28.651-63.867-63.868s28.65-63.868 63.867-63.868 63.867 28.651 63.867 63.868-28.65 63.868-63.867 63.868z" fill="#b9b9be"/></g></svg>